<svg xmlns="http://www.w3.org/2000/svg" xmlns:xlink="http://www.w3.org/1999/xlink" width="384.2" height="2909" viewBox="0 0 384.2 2909"><svg width="30" height="30" viewBox="0 0 30 30"><path d="M16 19.3V8h-2v11.3l-4.6-4.6L8 16.1l7 7 7-7-1.4-1.4zM15 0C6.7 0 0 6.7 0 15s6.7 15 15 15 15-6.7 15-15S23.3 0 15 0zm0 29C7.3 29 1 22.7 1 15S7.3 1 15 1s14 6.3 14 14-6.3 14-14 14z"/></svg><svg width="30" height="30" viewBox="0 0 30 30" y="30"><path d="M10.9 11.8L17 8v14l-6.1-4.1H8v-6.1zm8.4 2.4H22v1.5h-2.7zm1.614 6.2l-1.91-1.91 1.06-1.06 1.91 1.91zm.053-10.807l1.06 1.06-1.908 1.91-1.063-1.06zM15 1c7.7 0 14 6.3 14 14s-6.3 14-14 14S1 22.7 1 15 7.3 1 15 1m0-1C6.7 0 0 6.7 0 15s6.7 15 15 15 15-6.7 15-15S23.3 0 15 0z"/></svg><svg width="18" height="10.9" viewBox="0 0 18 10.9" y="60"><path fill="#010101" d="M0 1.4L1.5 0 9 8l7.5-8L18 1.4l-9 9.5z"/></svg><svg width="18" height="10.9" viewBox="0 0 18 10.9" y="71"><path fill="#fff" d="M0 1.4L1.5 0 9 8l7.5-8L18 1.4l-9 9.5z"/></svg><svg width="10.9" height="18" viewBox="0 0 10.9 18" y="82"><path fill="#010101" d="M9.5 0l1.4 1.5-8 7.5 8 7.6L9.5 18 0 9z"/></svg><svg width="10.9" height="18" viewBox="0 0 10.9 18" y="100"><path fill="#6699c8" d="M9.5 0l1.4 1.5-8 7.5 8 7.6L9.5 18 0 9z"/></svg><svg width="10.9" height="18" viewBox="0 0 10.9 18" y="118"><path fill="#010101" d="M1.4 18L0 16.6 8 9 0 1.5 1.4 0l9.5 9z"/></svg><svg width="10.9" height="18" viewBox="0 0 10.9 18" y="136"><path fill="#6699c8" d="M1.4 18L0 16.6 8 9 0 1.5 1.4 0l9.5 9z"/></svg><svg width="35" height="35" viewBox="0 0 35 35" y="154"><path fill="#010101" d="M17.5 0C7.8 0 0 7.8 0 17.5S7.8 35 17.5 35 35 27.2 35 17.5 27.2 0 17.5 0zm-5.2 23.8h-1.8V9.7h12.3v3.6l-2.4 2.4v-3.6h-7.5v9.3h1.8l-2.4 2.4zm5.7 2.1l-2.3.6.6-2.3 7.2-7.2 1.7 1.7-7.2 7.2zm8.2-8.1l-1.7-1.7 1-1 1.7 1.7-1 1z"/></svg><svg width="35" height="35" viewBox="0 0 35 35" y="189"><path d="M21.2 17.3c-2.2 0-3.9 1.8-3.9 3.9 0 2.1 1.8 3.8 3.9 3.8h.1c2.1 0 3.8-1.8 3.8-3.9-.1-2.1-1.8-3.8-3.9-3.8zm-1 5.4l-.1-4h1.4v2.6h1.9v1.4h-3.2zM17.5 0C7.8 0 0 7.8 0 17.5S7.8 35 17.5 35 35 27.2 35 17.5 27.2 0 17.5 0zm-5.7 18.1H8.7V8.6h10.8V12h-9v4.4h1.3v1.7zm9.5 9.6h-.1c-3.6 0-6.5-2.9-6.6-6.5-.1-3.6 2.9-6.6 6.5-6.7 3.7 0 6.6 2.9 6.7 6.5.1 3.6-2.9 6.6-6.5 6.7z" fill="#010101"/></svg><svg width="35" height="35" viewBox="0 0 35 35" y="224"><path fill="#010101" d="M17.5 0C7.8 0 0 7.8 0 17.5S7.8 35 17.5 35 35 27.2 35 17.5 27.2 0 17.5 0zm2.4 25.7L12.7 21H9.3v-7.2h3.4l7.2-4.5v16.4zm4.6-1.8l-2.3-2.3 1.2-1.2 2.3 2.3-1.2 1.2zm1.2-5.5h-3.2v-1.8h3.2v1.8zm-2.2-3.8l-1.2-1.2 2.3-2.3 1.2 1.2-2.3 2.3z"/></svg><svg width="35" height="35" viewBox="0 0 35 35" y="259"><path d="M11.7 16.5h11.5v5.8H11.7zM17.5 0C7.8 0 0 7.8 0 17.5S7.8 35 17.5 35 35 27.2 35 17.5 27.2 0 17.5 0zm8.1 24.6H9.4V11h3.4V8.4h2.3V11h4.7V8.4h2.3V11h3.4v13.6z" fill="#010101"/></svg><svg width="35" height="35" viewBox="0 0 35 35" y="294"><path d="M17.5 0C7.8 0 0 7.8 0 17.5S7.8 35 17.5 35 35 27.2 35 17.5 27.2 0 17.5 0zm11.7 19.7h-7.8l-2-3.8-4.2 9.8-3-5.9H5.8v-2h7.6L15 21l4.2-9.8 3.4 6.5h6.6v2z"/></svg><svg width="35" height="35" viewBox="0 0 35 35" y="329"><path d="M20.1 11.9c-.4 0-1 .1-1.5.6l-3 3 4 4 3-3c.5-.5.6-1.1.6-1.5 0-.8-.3-1.5-.9-2.1-.7-.7-1.4-1-2.2-1zM17.5 0C7.8 0 0 7.8 0 17.5S7.8 35 17.5 35 35 27.2 35 17.5 27.2 0 17.5 0zm6.7 18.1l-3 3-3.1 3c-.8.8-1.8 1.2-2.9 1.2h-.3c-.2 0-.4 0-.6-.1-.2 0-.3 0-.5-.1-.1 0-.2-.1-.3-.1-.9-.2-1.7-.7-2.4-1.4-2-2-2.1-5-.3-6.8l3.1-3 3-3c.8-.8 2-1.3 3.1-1.3 1.3 0 2.7.5 3.7 1.6 2.1 2.1 2.3 5.2.5 7z" fill="#010101"/></svg><svg width="35" height="35" viewBox="0 0 35 35" y="364"><g fill="#010101"><ellipse cx="17.5" cy="16.4" rx="6.6" ry="4.6"/><path d="M17.5 0C7.8 0 0 7.8 0 17.5S7.8 35 17.5 35C27.1 35 35 27.2 35 17.5S27.1 0 17.5 0zm.8 23.7l-5.5 3.9.2-4.7c-2.9-1.2-4.8-3.7-4.8-6.4 0-4 4.1-7.3 9.2-7.3s9.2 3.3 9.2 7.3c.1 3.7-3.6 6.9-8.3 7.2z"/></g></svg><svg width="35" height="35" viewBox="0 0 35 35" y="399"><path d="M17.5 0C7.8 0 0 7.8 0 17.5S7.8 35 17.5 35 35 27.2 35 17.5 27.2 0 17.5 0zm.6 26.9l-2.5-7.2-7.2-2.5 6.1-2.7 11-4.8-7.4 17.2zm.2-5l3.7-8.6-4.8 4.9.2 1z" fill="#010101"/></svg><svg width="35" height="35" viewBox="0 0 35 35" y="434"><path d="M20.7 11.4c-1.5.3-3.2 4.2-3.2 4.2s-1.7-3.9-3.2-4.2c-1.2-.4-2.2.5-2.6 1.2-.4.7-.3 2 .5 3.4 1.5 2.9 4 5.6 5.3 7.1 1.4-1.5 3.9-4.2 5.4-7 .8-1.5.9-2.7.5-3.4-.5-.8-1.5-1.7-2.7-1.3zM17.5 0C7.8 0 0 7.8 0 17.5S7.8 35 17.5 35 35 27.2 35 17.5 27.2 0 17.5 0zm7.7 17.2c-2.4 4.6-7.5 8.9-7.7 9h-.1c-.2-.2-5.3-4.5-7.7-9.1-1.5-3-1.1-4.9-.4-6 .9-1.4 2.7-2.4 4.7-2.4 1.4 0 2.5 1.2 3.3 2.3.8-1.1 1.7-2.2 3.3-2.3 2 0 3.9 1 4.7 2.4 1 1.2 1.4 3.1-.1 6.1z" fill="#010101"/></svg><svg width="35" height="35" viewBox="0 0 35 35" y="469"><path fill="#010101" d="M17.5 0C7.8 0 0 7.8 0 17.5S7.8 35 17.5 35 35 27.2 35 17.5 27.2 0 17.5 0zm0 26.5l-8.3-8.3 1.7-1.7 5.5 5.5V8.5h2.4v13.4l5.5-5.5 1.7 1.7-8.5 8.4z"/></svg><svg width="29" height="29" viewBox="0 0 29 29" y="504"><path d="M14.5 0C6.5 0 0 6.5 0 14.5S6.5 29 14.5 29 29 22.5 29 14.5 22.5 0 14.5 0zm4.4 8.9h-1.6c-1.2 0-1.5.6-1.5 1.5v1.9h3l-.4 3h-2.6V23h-3.1v-7.7h-2.6v-3h2.6V10c0-2.6 1.6-4 3.8-4 1.1 0 2 .1 2.3.1v2.8z"/></svg><svg width="29" height="29" viewBox="0 0 29 29" y="533"><path fill="#fff" d="M14.5 0C6.5 0 0 6.5 0 14.5S6.5 29 14.5 29 29 22.5 29 14.5 22.5 0 14.5 0zm4.4 8.9h-1.6c-1.2 0-1.5.6-1.5 1.5v1.9h3l-.4 3h-2.6V23h-3.1v-7.7h-2.6v-3h2.6V10c0-2.6 1.6-4 3.8-4 1.1 0 2 .1 2.3.1v2.8z"/></svg><svg width="35" height="35" viewBox="0 0 35 35" y="562"><path d="M17.5 0C7.8 0 0 7.8 0 17.5S7.8 35 17.5 35 35 27.2 35 17.5 27.2 0 17.5 0zm2.1 19.9v7.8H16v-7.8L9.3 8.7h4.2l4.3 7.6L22 8.7h4.2l-6.6 11.2z"/></svg><svg width="35" height="35" viewBox="0 0 35 35" y="597"><g fill="#010101"><path d="M11.7 23.3h11.6v-9.2H11.7v9.2zm5.8-7.5c1.6 0 3 1.3 3 3s-1.3 3-3 3c-1.6 0-3-1.3-3-3s1.4-3 3-3z"/><circle cx="17.5" cy="18.7" r="1.2"/><path d="M17.5 0C7.8 0 0 7.8 0 17.5S7.8 35 17.5 35 35 27.2 35 17.5 27.2 0 17.5 0zm8.1 25.6H9.4V11.8h5.4V9.4h5.6v2.4h5.3v13.8z"/></g></svg><svg width="35" height="35" viewBox="0 0 35 35" y="632"><path d="M19.6 17L18 15.4l2-2c-.6-.4-1.1-.5-1.5-.5-.1 0-.4 0-.5.1l-4.7 4.7c-.2.2-.2 1.1.4 2l1.3-1.3 1.6 1.6-1.3 1.3c.6.4 1.1.5 1.5.5.1 0 .4 0 .5-.1L22 17c.2-.2.2-1.1-.4-2l-2 2zM17.5 0C7.8 0 0 7.8 0 17.5 0 27.1 7.8 35 17.5 35S35 27.1 35 17.5C35 7.8 27.2 0 17.5 0zm6.2 18.6L19 23.3c-.5.5-1.3.8-2.1.8-1 0-2.2-.4-3.2-1.2l-2.5 2.5-1.6-1.6 2.5-2.5c-1.4-1.9-1.6-4.1-.4-5.3l4.7-4.7c.5-.5 1.3-.8 2.1-.8 1 0 2.2.4 3.2 1.2l2.2-2.2 1.6 1.6-2.2 2.2c1.4 1.9 1.6 4.1.4 5.3z" fill="#010101"/></svg><svg width="35" height="35" viewBox="0 0 35 35" y="667"><path fill="#010101" d="M17.5 0C7.8 0 0 7.8 0 17.5S7.8 35 17.5 35 35 27.2 35 17.5 27.2 0 17.5 0zm9 24h-18V12.9l9 7.3 9-7.3V24zm0-13l-9 7.3-9-7.3h18z"/></svg><svg width="30" height="30" viewBox="0 0 30 30" y="702"><path d="M15 0C6.7 0 0 6.7 0 15s6.7 15 15 15 15-6.7 15-15S23.3 0 15 0zm-3.8 21.7V8.8l9.9 6.5-9.9 6.4z"/></svg><svg width="30" height="30" viewBox="0 0 30 30" fill="#fff" y="732"><path d="M15 0C6.7 0 0 6.7 0 15s6.7 15 15 15 15-6.7 15-15S23.3 0 15 0zm-3.8 21.7V8.8l9.9 6.5-9.9 6.4z"/></svg><svg width="35" height="35" viewBox="0 0 35 35" y="762"><g fill="#010101"><circle cx="17.5" cy="13.6" r="2.4"/><path d="M17.5 19.1c-3.4 0-4.6.7-5 1.1-.4.4-.6 1.2-.6 2.3h11.2c-.1-1.1-.2-1.8-.7-2.3-.5-.5-1.8-1.1-4.9-1.1zm0-19.1C7.8 0 0 7.8 0 17.5S7.8 35 17.5 35C27.1 35 35 27.2 35 17.5S27.1 0 17.5 0zm7.9 24.7H9.7c0-3.5-.5-6.8 4.8-7.6-1-.8-1.6-2.1-1.6-3.5 0-2.5 2.1-4.6 4.6-4.6s4.6 2.1 4.6 4.6c0 1.4-.6 2.6-1.6 3.5 5.2.9 4.9 4.3 4.9 7.6z"/></g></svg><svg width="35" height="35" viewBox="0 0 35 35" y="797"><path fill="#010101" d="M17.5 0C7.8 0 0 7.8 0 17.5S7.8 35 17.5 35 35 27.2 35 17.5 27.2 0 17.5 0zm7.7 26.5H9.8v-18h15.4v18zM13.1 12.3h8.7v2h-8.7zm0 4.2h8.7v2h-8.7zm0 4.2h8.7v2h-8.7z"/></svg><svg width="35" height="35" viewBox="0 0 35 35" y="832"><path fill="#010101" d="M17.5 0C7.9 0 0 7.8 0 17.5S7.9 35 17.5 35C27.2 35 35 27.2 35 17.5S27.2 0 17.5 0zm-4.8 12.5v10.7l-2.4 2.4V10.1h5V8.8h4v1.3H23v2.4h-3.7v1.3h-4v-1.3h-2.6zM24 21.8l-.8-.8 2.3-2.3-.7-.7-7.3 7-2.2.5.5-2.2 7.5-7.5.5-.5 3.3 3.3-3.1 3.2z"/></svg><svg width="35" height="35" viewBox="0 0 35 35" y="867"><path d="M16 11.8c-2.3 0-4.3 1.9-4.3 4.3s1.9 4.3 4.3 4.3 4.3-1.9 4.3-4.3-1.9-4.3-4.3-4.3zM17.5 0C7.8 0 0 7.8 0 17.5S7.8 35 17.5 35 35 27.2 35 17.5 27.2 0 17.5 0zm6.4 25.5l-4.1-4.1c-1.1.8-2.4 1.2-3.8 1.2-3.6 0-6.5-2.9-6.5-6.5s2.9-6.5 6.5-6.5 6.5 2.9 6.5 6.5c0 1.4-.4 2.6-1.1 3.7l4.1 4.1-1.6 1.6z" fill="#010101"/></svg><svg width="35" height="35" viewBox="0 0 35 35" y="902"><path d="M35 17.4c.1 9.7-7.7 17.5-17.4 17.6S.1 27.3 0 17.6 7.7.1 17.4 0 34.9 7.7 35 17.4zm-13.5.5c-1.3 0-2.4.6-3.2 1.5l-2.8-1.5c.1-.3.1-.6.1-.9 0-.4-.1-.7-.1-1l2.8-1.4c.8 1 1.9 1.6 3.2 1.6 2.3 0 4.1-1.9 4.1-4.1S23.7 8 21.5 8c-2.3 0-4.1 1.9-4.1 4.1 0 .3 0 .5.1.8l-2.9 1.5c-.8-.8-1.8-1.4-3.1-1.4-2.3 0-4.1 1.9-4.1 4.1s1.9 4.1 4.1 4.1c1.3 0 2.4-.6 3.2-1.5l2.8 1.5c-.1.3-.1.5-.1.8 0 2.3 1.9 4.1 4.1 4.1 2.3 0 4.1-1.9 4.1-4.1s-1.8-4.1-4.1-4.1z"/></svg><svg width="35" height="35" viewBox="0 0 35 35" y="937"><path d="M35 17.4c.1 9.7-7.7 17.5-17.4 17.6S.1 27.3 0 17.6 7.7.1 17.4 0 34.9 7.7 35 17.4zm-21.1.1c0-2.7 1.5-5 3.6-6.3-1.1-.6-2.3-1-3.6-1-4 0-7.2 3.2-7.2 7.2s3.2 7.2 7.2 7.2c1.3 0 2.6-.4 3.6-1-2.2-1.1-3.6-3.4-3.6-6.1zm7.2-7.2c-1.3 0-2.6.4-3.6 1 2.2 1.3 3.6 3.6 3.6 6.3s-1.5 5-3.6 6.3c1.1.6 2.3 1 3.6 1 4 0 7.2-3.2 7.2-7.2s-3.2-7.4-7.2-7.4z"/></svg><svg width="29" height="29" viewBox="0 0 29 29" y="972"><path d="M14.5 0C6.5 0 0 6.5 0 14.5S6.5 29 14.5 29 29 22.5 29 14.5 22.5 0 14.5 0zm6.7 11.8v.4c0 4.2-3.2 9.1-9.1 9.1-1.8 0-3.5-.5-4.9-1.4H8c1.5 0 2.9-.5 4-1.4-1.4 0-2.6-.9-3-2.2.2 0 .4.1.6.1.3 0 .6 0 .8-.1-1.5-.3-2.6-1.6-2.6-3.1.4.2.9.4 1.4.4-.9-.6-1.4-1.5-1.4-2.6 0-.6.2-1.1.4-1.6 1.6 1.9 3.9 3.2 6.6 3.3-.1-.2-.1-.5-.1-.7 0-1.8 1.4-3.2 3.2-3.2.9 0 1.7.4 2.3 1 .7-.1 1.4-.4 2-.8-.2.7-.7 1.4-1.4 1.8.6-.1 1.3-.2 1.8-.5-.3.5-.8 1.1-1.4 1.5z"/></svg><svg width="29" height="29" viewBox="0 0 29 29" y="1001"><path fill="#fff" d="M14.5 0C6.5 0 0 6.5 0 14.5S6.5 29 14.5 29 29 22.5 29 14.5 22.5 0 14.5 0zm6.7 11.8v.4c0 4.2-3.2 9.1-9.1 9.1-1.8 0-3.5-.5-4.9-1.4H8c1.5 0 2.9-.5 4-1.4-1.4 0-2.6-.9-3-2.2.2 0 .4.1.6.1.3 0 .6 0 .8-.1-1.5-.3-2.6-1.6-2.6-3.1.4.2.9.4 1.4.4-.9-.6-1.4-1.5-1.4-2.6 0-.6.2-1.1.4-1.6 1.6 1.9 3.9 3.2 6.6 3.3-.1-.2-.1-.5-.1-.7 0-1.8 1.4-3.2 3.2-3.2.9 0 1.7.4 2.3 1 .7-.1 1.4-.4 2-.8-.2.7-.7 1.4-1.4 1.8.6-.1 1.3-.2 1.8-.5-.3.5-.8 1.1-1.4 1.5z"/></svg><svg width="35" height="35" viewBox="0 0 35 35" y="1030"><path d="M19.2 12.8c.4 0 .7-.3.7-.7 0-.4-.3-.7-.7-.7-.3 0-.5.2-.6.4l-.2.3.2.3c.1.2.3.4.6.4zm-5.8 9.4h6.5v-4.3h-6.5zm.7-9.4c.3 0 .5-.2.6-.4l.2-.3-.2-.3c-.1-.2-.3-.4-.6-.4-.4 0-.7.3-.7.7 0 .4.3.7.7.7zm8.7 7.5l1.4.5v-1.5l-1.4.5-.8.3zM17.5 0C7.8 0 0 7.8 0 17.5S7.8 35 17.5 35C27.1 35 35 27.2 35 17.5S27.1 0 17.5 0zm-3.4 9.2c1.1 0 2.1.7 2.6 1.6.5-.9 1.4-1.6 2.6-1.6 1.6 0 2.9 1.3 2.9 2.9 0 1.6-1.3 2.9-2.9 2.9-1.1 0-2.1-.7-2.6-1.6-.5.9-1.4 1.6-2.6 1.6-1.6 0-2.9-1.3-2.9-2.9 0-1.6 1.3-2.9 2.9-2.9zm12.3 14.6l-4.3-1.4v2H11.2v-8.7h10.9v2l4.3-1.4v7.5z" fill="#010101"/></svg><svg width="29" height="29" viewBox="0 0 29 29" y="1065"><path d="M13.2 20.2c-.2.3-.4.4-.6.4-.1 0-.2-.1-.2-.2v-3.8h-.9v3.8c0 .3 0 .6.1.7.1.2.3.4.6.4s.7-.2 1-.6v.5h.8v-4.8h-.9v3.6zm3.4-3.7c-.3 0-.6.2-.9.5v-2.1h-.9v6.5h.9v-.5c.3.4.6.5.9.5.3 0 .6-.2.7-.5.1-.2.1-.5.1-1V18c0-.5 0-.8-.1-1-.2-.4-.4-.5-.7-.5zm-.1 3.5c0 .4-.1.6-.4.6-.1 0-.3-.1-.4-.2v-2.9c.1-.1.3-.2.4-.2.3 0 .4.2.4.7v2zm-8.1-4.2h1v5.5h1v-5.5h1v-.9h-3zm5.9-4.2c.3 0 .4-.2.4-.7v-2c0-.5-.1-.7-.4-.7-.3 0-.4.2-.4.7v2c0 .4.1.7.4.7zm5 4.9c-.4 0-.8.2-1 .5-.2.2-.3.6-.3 1.1v1.7c0 .5.1.9.3 1.1.3.3.6.5 1.1.5.5 0 .8-.2 1.1-.5.1-.2.2-.3.2-.5v-.7h-.9v.6c-.1.2-.2.4-.4.4-.3 0-.4-.2-.4-.7v-.9h1.7v-1c0-.5-.1-.9-.3-1.1-.3-.4-.6-.5-1.1-.5zm.5 1.9h-.9V18c0-.4.1-.7.4-.7.3 0 .4.2.4.7v.4zM14.5 0C6.5 0 0 6.5 0 14.5S6.5 29 14.5 29 29 22.5 29 14.5 22.5 0 14.5 0zm1.8 7.4h.9v3.9c0 .1.1.2.2.2.2 0 .4-.1.6-.4V7.4h.9v4.9H18v-.5c-.4.4-.7.6-1 .6-.3 0-.5-.1-.6-.4 0-.1-.1-.4-.1-.7V7.4zM13 9c0-.5.1-.9.3-1.1.2-.3.6-.5 1-.5s.8.2 1 .5c.2.2.3.6.3 1.1v1.7c0 .5-.1.9-.3 1.1-.2.3-.6.5-1 .5s-.8-.2-1-.5c-.2-.2-.3-.6-.3-1.1V9zm-2.4-3.2l.7 2.6.7-2.6h1l-1.2 3.9v2.6h-1V9.7c-.1-.5-.3-1.2-.6-2.1l-.6-1.8h1zm10.9 15.8c-.2.8-.8 1.3-1.6 1.4-1.8.2-3.6.2-5.4.2-1.8 0-3.6 0-5.4-.2-.8-.1-1.4-.7-1.6-1.4-.3-1.1-.3-2.3-.3-3.4s0-2.3.3-3.4c.2-.8.8-1.3 1.6-1.4 1.8-.2 3.6-.2 5.4-.2 1.8 0 3.6 0 5.4.2.8.1 1.4.7 1.6 1.4.3 1.1.3 2.3.3 3.4-.1 1.1-.1 2.3-.3 3.4z"/></svg><svg width="29" height="29" viewBox="0 0 29 29" y="1094"><path d="M13.1 20.2c-.2.3-.4.4-.6.4-.1 0-.2-.1-.2-.2v-3.8h-.9v3.8c0 .3 0 .6.1.7.1.2.3.4.6.4s.7-.2 1-.6v.5h.9v-4.8h-.9v3.6zm3.5-3.7c-.3 0-.6.2-.9.5v-2.1h-.9v6.5h.9v-.5c.3.4.6.5.9.5.3 0 .6-.2.7-.5.1-.2.1-.5.1-1V18c0-.5 0-.8-.1-1-.2-.4-.4-.5-.7-.5zm-.1 3.5c0 .4-.1.6-.4.6-.1 0-.3-.1-.4-.2v-2.9c.1-.1.3-.2.4-.2.3 0 .4.2.4.7v2zm-8.2-4.2h1.1v5.5h.9v-5.5h1.1v-.9H8.3zm6-4.2c.3 0 .4-.2.4-.7v-2c0-.5-.1-.7-.4-.7-.3 0-.4.2-.4.7v2c0 .4.1.7.4.7zm5 4.9c-.4 0-.8.2-1 .5-.2.2-.3.6-.3 1.1v1.7c0 .5.1.9.3 1.1.3.3.6.5 1.1.5.5 0 .8-.2 1.1-.5.1-.2.2-.3.2-.5v-.7h-.9v.6c-.1.2-.2.4-.4.4-.3 0-.4-.2-.4-.7v-.9h1.7v-1c0-.5-.1-.9-.3-1.1-.3-.4-.6-.5-1.1-.5zm.5 1.9h-.9V18c0-.4.1-.7.4-.7.3 0 .4.2.4.7v.4zM14.5 0C6.5 0 0 6.5 0 14.5S6.5 29 14.5 29 29 22.5 29 14.5 22.5 0 14.5 0zm1.8 7.4h.9v3.9c0 .1.1.2.2.2.2 0 .4-.1.6-.4V7.4h.9v4.9H18v-.5c-.4.4-.7.6-1 .6-.3 0-.5-.1-.6-.4 0-.1-.1-.4-.1-.7V7.4zM13 9c0-.5.1-.9.3-1.1.2-.3.6-.5 1-.5s.8.2 1 .5c.2.2.3.6.3 1.1v1.7c0 .5-.1.9-.3 1.1-.2.3-.6.5-1 .5s-.8-.2-1-.5c-.2-.2-.3-.6-.3-1.1V9zm-2.4-3.2l.7 2.6.7-2.6h1l-1.2 3.9v2.6h-1V9.7c-.1-.5-.3-1.2-.6-2.1l-.6-1.8h1zm10.9 15.8c-.2.8-.8 1.3-1.6 1.4-1.8.2-3.6.2-5.4.2-1.8 0-3.6 0-5.4-.2-.8-.1-1.4-.7-1.6-1.4-.3-1.1-.3-2.3-.3-3.4s0-2.3.3-3.4c.2-.8.8-1.3 1.6-1.4 1.8-.2 3.6-.2 5.4-.2 1.8 0 3.6 0 5.4.2.8.1 1.4.7 1.6 1.4.3 1.1.3 2.3.3 3.4-.1 1.1-.1 2.3-.3 3.4z" fill="#fff"/></svg><svg width="10" height="10" viewBox="0 0 10 10" y="1123"><path d="M1.5 8.5V0H0v10h10V8.5zm3.3-2.2l3.7-3.7v3.1H10V0H4.3v1.5h3.1L3.7 5.2z" fill="#010101"/></svg><svg viewBox="0 0 10 10" width="10" height="10" y="1133"><path stroke="#6698C8" stroke-width="1.5" stroke-miterlimit="10" d="M.7 0v10m9.3-.8H0M4.5.7h4.7v4.8m0-4.8L4.1 5.9" fill="none"/></svg><svg viewBox="0 0 10 10" width="10" height="10" y="1143"><path stroke="#B15926" stroke-width="1.5" stroke-miterlimit="10" d="M.7 0v10m9.3-.8H0M4.5.7h4.7v4.8m0-4.8L4.1 5.9" fill="none"/></svg><svg viewBox="0 0 10 10" width="10" height="10" y="1153"><path stroke="#B15926" stroke-width="1.5" stroke-miterlimit="10" d="M.7 0v10m9.3-.8H0M4.5.7h4.7v4.8m0-4.8L4.1 5.9" fill="none"/></svg><svg width="12" height="12" viewBox="0 0 12 12" y="1163"><path fill="#7F7F7F" enable-background="new" d="M0 0h12v12H0z"/><path fill="#fff" d="M2.7 4.6v2.7H4L6.7 9V3L4 4.6zm5.5 1h1.4v.8H8.2zm.853 3.253l-.99-.99.565-.565.99.99zm.02-5.593l.565.564-.99.99-.565-.565z"/></svg><svg width="12" height="12" viewBox="0 0 12 12" y="1175"><path fill="#2372BA" d="M12 12H0V0h12v12"/><path fill="#fff" d="M10.7 3l-2 6H7.1L6 5.5 4.8 9H3.1L1.3 3H3l1.1 3.9L5.4 3h1.2l1.3 3.9L9 3h1.7"/></svg><svg width="12" height="12" viewBox="0 0 12 12" y="1187"><path fill="#7F7F7F" enable-background="new" d="M12 12H0V0h12v12"/><path fill="#fff" d="M2 9.3l1.7-1.6.8.7 3.4-3.1 1.3 1.1.8-.7v3.6H2M3.7 3C4.4 3 5 3.6 5 4.3s-.6 1.2-1.3 1.2-1.2-.6-1.2-1.2S3 3 3.7 3"/></svg><svg width="12" height="12" viewBox="0 0 12 12" y="1199"><path fill="#EA4C3A" d="M12 12H0V0h12v12"/><path fill="#fff" d="M2.5 9.8c-.4 0-.5-.2-.6-.4-.1-.2-.1-.4-.1-.6.1-.3.2-.5.4-.7.2-.2.5-.5 1.1-.7.3-.2.5-.3.7-.4.3-.5.7-1.2 1-2 0-.1 0-.1.1-.2 0-.2-.1-.4-.1-.5-.1-.3-.2-.6-.2-.9v-.7c0-.3.1-.4.2-.6.1-.2.3-.3.4-.3.1 0 .2 0 .2-.1h.3c.1 0 .2.1.2.1.5.2.4.6.4 1v.1c0 .4-.2 1.1-.4 1.8.2.3.4.7.7 1 .2.3.4.4.5.6H8c.3 0 .6.1.8.1.2.1.5.1.8.3.3.2.5.4.6.6.1.3.1.6 0 .9-.2.2-.3.4-.7.5-.2.1-.5.1-.7 0-.3-.1-.5-.2-.8-.4-.3-.2-.5-.4-.8-.7l-.3-.3c-.2 0-.3.1-.5.1-.3.1-.7.1-1.2.3-.1 0-.3.1-.5.1-.4.7-.9 1.2-1.2 1.5-.3.3-.6.4-.9.4 0 .1-.1.1-.1.1zm5.9-2.5c.1 0 .1.1.2.1.2.3.4.3.4.3h.2c0-.1-.1-.1-.2-.2-.1 0-.2-.1-.4-.1-.1 0-.1 0-.2-.1zM5.8 5.9c-.1.3-.2.5-.3.7.3-.1.5-.1.7-.1-.2-.2-.3-.4-.4-.6z"/></svg><svg width="12" height="12" viewBox="0 0 12 12" y="1211"><path fill="#DD5B26" d="M12 12H0V0h12v12"/><path fill="#fff" d="M6.8 5c0-.2-.1-.4-.2-.6-.2-.2-.4-.2-.8-.2h-.6v1.6h.6c.4 0 .6-.1.8-.2.1-.2.2-.4.2-.6m1.5-.1c0 .5-.1 1-.4 1.3-.4.5-.9.7-1.7.7h-1V9H3.7V3h2.5c.7 0 1.2.2 1.6.6.3.4.5.8.5 1.3z"/></svg><svg width="12" height="12" viewBox="0 0 12 12" y="1223"><path fill="#08743B" d="M12 12H0V0h12v12"/><path fill="#fff" d="M9.5 9H7.4L6 7 4.6 9H2.5l2.6-3.2L3 3h2.1L6 4.5 7.1 3h2.1L7 5.8 9.5 9"/></svg><svg width="12" height="12" viewBox="0 0 12 12" y="1235"><path fill="#7F7F7F" enable-background="new" d="M12 12H0V0h12v12"/><path fill="#fff" d="M5 0h2v8H5zM3 2h6v1H3zm0 2h6v1H3zm0 2h6v1H3z"/></svg><svg width="14" height="14" viewBox="0 0 14 14" y="1247"><path d="M12.6 4.5l-.9.8 1.4 1.4.9-.8zm-7.7 7.6L4.4 14l1.9-.5 6-6-1.4-1.4zM2 2h6.3v3l2-2V0H0v11.8h1.5l2-2H2z"/></svg><svg width="14" height="14" viewBox="0 0 14 14" y="1261"><path d="M9.1 4.4c-2.7 0-4.8 2.2-4.7 4.9 0 2.6 2.2 4.7 4.8 4.7h.1c2.7 0 4.8-2.2 4.7-4.9-.1-2.6-2.2-4.7-4.9-4.7zm.1 7.6c-1.6 0-2.8-1.2-2.9-2.8 0-1.6 1.2-2.8 2.8-2.9 1.5 0 2.8 1.2 2.8 2.8.1 1.6-1.2 2.9-2.7 2.9zm.2-2.7l-.1-1.9h-1l.1 2.9h2.4l-.1-1zM1.3 2.5h6.6V0H0v7h2.3V5.7h-1z"/></svg><svg width="14" height="14" viewBox="0 0 14 14" y="1275"><path fill="#6698c8" d="M12.6 5.6L8 10.2V0H6v10.2L1.4 5.6 0 7l7 7 7-7z"/></svg><svg width="14" height="14" viewBox="0 0 14 14" y="1289"><path fill="#010101" d="M12.6 5.6L8 10.2V0H6v10.2L1.4 5.6 0 7l7 7 7-7z"/></svg><svg width="14.3" height="14" viewBox="0 0 14.3 14" y="1303"><path d="M.2 3.8v6.1h2.9L9.3 14V0L3.1 3.8zm11.3 2.4h2.7v1.5h-2.7zm1.7 6.235l-1.91-1.91 1.06-1.06 1.91 1.91zm-.018-10.878l1.06 1.06-1.91 1.91-1.06-1.06z"/></svg><svg width="14.3" height="14" viewBox="0 0 14.3 14" y="1317"><path d="M.2 3.8v6.1h2.9L9.3 14V0L3.1 3.8zm11.3 2.4h2.7v1.5h-2.7zm1.7 6.235l-1.91-1.91 1.06-1.06 1.91 1.91zm-.018-10.878l1.06 1.06-1.91 1.91-1.06-1.06z" fill="#6699C8"/></svg><svg width="14.3" height="14" viewBox="0 0 14.3 14" y="1331"><path fill="#ccc" d="M.2 3.8v6.1h2.9L9.3 14V0L3.1 3.8z"/></svg><svg viewBox="0 0 24 24" width="30" height="24" pointer-events="none" display="block" y="1345"><path fill="#fff" d="M6 19h4V5H6v14zm8-14v14h4V5h-4z"/></svg><svg width="17.061" height="17.061" viewBox="0 0 17.061 17.061" y="1369"><defs><path id="a" d="M0 0h17.06v17.06H0z"/></defs><clipPath id="b"><use xlink:href="#a" overflow="visible"/></clipPath><path clip-path="url(#b)" stroke="#999" stroke-width="1.5" stroke-miterlimit="10" d="M16.53.53l-16 16m0-16l16 16" fill="none"/></svg><svg width="14" height="14" viewBox="0 0 14 14" y="1387"><path d="M11 2.2V0H9v2.2H5V0H3v2.2H0V14h14V2.2h-3zm1 9.8H2V7h10v5z"/></svg><svg width="5.2" height="9" viewBox="0 0 5.2 9" y="1401"><path d="M.7 9L0 8.3l3.8-3.8L0 .7.7 0l4.5 4.5z"/></svg><svg width="5.2" height="9" viewBox="0 0 5.2 9" y="1410"><path fill="#6698c8" d="M.7 9L0 8.3l3.8-3.8L0 .7.7 0l4.5 4.5z"/></svg><svg width="14" height="14" viewBox="0 0 14 14" y="1419"><path d="M12.6 1.4C11.6.5 10.4 0 9.3 0c-1 0-2 .4-2.8 1.1L3.9 3.8 1.2 6.5c-1.6 1.6-1.5 4.3.3 6 .6.6 1.3 1 2.1 1.2.1 0 .2.1.3.1.1 0 .3 0 .4.1h.8c1 0 1.9-.4 2.6-1.1l2.7-2.7 2.7-2.6c1.4-1.6 1.2-4.3-.5-6.1zm-1.1 4.7L8.8 8.7 5.3 5.2 8 2.6c.4-.5.9-.6 1.3-.6.7 0 1.4.3 1.9.8.5.6.8 1.3.8 1.9 0 .4-.1.9-.5 1.4z"/></svg><svg width="14.1" height="14" viewBox="0 0 14.1 14" y="1433"><path d="M7.1 0c-3.9 0-7 2.5-7 5.5 0 2.1 1.5 3.9 3.6 4.9L3.6 14l4.1-2.9c3.6-.3 6.4-2.6 6.4-5.5 0-3.1-3.1-5.6-7-5.6zm5 5.6c0 1.9-2.2 3.5-5 3.5s-5-1.6-5-3.5 2.2-3.5 5-3.5 5 1.5 5 3.5z"/></svg><svg width="14" height="14" viewBox="0 0 14 14" y="1447"><path d="M5 3.9L0 6.1l5.9 2 2 5.9L14 0 5 3.9zm3.1 5.9l-.8-2.1-.2-.9L11 2.9 8.1 9.8z"/></svg><svg width="14" height="14" viewBox="0 0 14 14" y="1461"><path d="M13.5 2c-.7-1.2-2.2-2-3.8-2C8.4.1 7.6 1 7 1.9 6.4 1 5.5 0 4.3 0 2.7 0 1.2.8.5 1.9c-.5.9-.9 2.5.3 4.8 1.9 3.7 6 7.1 6.2 7.3.1-.1 4.2-3.6 6.2-7.2 1.2-2.4.8-4 .3-4.8zm-2.2 3.9c-1.2 2.3-3.2 4.4-4.3 5.6-1.1-1.2-3.1-3.4-4.3-5.7-.6-1.2-.7-2.1-.4-2.7.4-.6 1.1-1.3 2.1-1C5.6 2.4 7 5.5 7 5.5s1.4-3.1 2.6-3.3c.9-.3 1.8.4 2.1 1 .4.5.2 1.5-.4 2.7z"/></svg><svg width="14" height="14" viewBox="0 0 14 14" y="1475"><path d="M7.7 0v2h2.8L7.3 5.3l1.4 1.4L12 3.4v2.9h2V0zM5.3 7.3L2 10.5V7.7H0V14h6.3v-2H3.4l3.3-3.3z"/></svg><svg width="14.007" height="14.007" viewBox="0 0 14.007 14.007" y="1489"><path fill="#010101" d="M7.673 12.5h-1.5V6.173h6.31v1.5h-4.81zm5.274 1.508L6.393 7.454l1.06-1.06 6.553 6.555zM0 0v14h4.145v-1.5H1.5v-11h11v2.625H14V0z"/></svg><svg width="14.007" height="14.007" viewBox="0 0 14.007 14.007" y="1504"><path fill="#fff" d="M7.673 12.5h-1.5V6.173h6.31v1.5h-4.81zm5.274 1.508L6.393 7.454l1.06-1.06 6.553 6.555zM0 0v14h4.145v-1.5H1.5v-11h11v2.625H14V0z"/></svg><svg width="7" height="13.9" viewBox="0 0 7 13.9" y="1519"><path fill="#010101" d="M6.6 7.6l.3-2.5H4.5V3.5c0-.7.2-1.2 1.2-1.2H7V.1C6.7.1 6 0 5.1 0 3.3 0 2 1.2 2 3.3v1.8H0v2.5h2V14h2.5V7.6h2.1z"/></svg><svg width="14" height="14" viewBox="0 0 14 14" y="1533"><path d="M.8 14c-.5 0-.8-.3-.8-.8V.8C0 .3.3 0 .8 0h12.5c.4 0 .7.3.7.8v12.5c0 .4-.3.8-.8.8H.8zm8.9 0V8.6h1.8l.3-2.1H9.7V5.1c0-.6.2-1 1-1h1.1V2.2c-.2 0-.9-.1-1.6-.1-1.6 0-2.7 1-2.7 2.8v1.6H5.7v2.1h1.8V14h2.2z"/></svg><svg width="40" height="40" viewBox="0 0 40 40" y="1547"><path d="M14.4 0v25.6H40V0H14.4zM4.8 14.4H0V40h25.6v-4.8H4.7c.1-7 .1-13.9.1-20.8zm7.1-7.2H7.2v25.6h25.6V28H11.9V7.2z" fill="#010101"/></svg><svg width="40" height="40" viewBox="0 0 40 40" y="1587"><path d="M14.4 0v25.6H40V0H14.4zM4.8 14.4H0V40h25.6v-4.8H4.7c.1-7 .1-13.9.1-20.8zm7.1-7.2H7.2v25.6h25.6V28H11.9V7.2z" fill="#fff"/></svg><svg width="14" height="14" viewBox="0 0 14 14" y="1627"><path d="M7 10.6c1.4 0 2.6-1.1 2.6-2.6S8.4 5.5 7 5.5c-1.4 0-2.6 1.1-2.6 2.6s1.2 2.5 2.6 2.5zM7 7c.6 0 1.1.5 1.1 1.1s-.5 1-1.1 1c-.6 0-1.1-.5-1.1-1.1S6.4 7 7 7zm2.4-4.9V0H4.6v2.1H0V14h14V2.1H9.4zM12 12H2V4.1h10V12z"/></svg><svg width="14" height="14" viewBox="0 0 14 14" y="1641"><path d="M2 2h8.6v1.4h2V0H0v12.7h3.5v-2H2zm12 10.6L9.3 7.9H13v-2H6v7.2h1.9V9.3l4.6 4.7z"/></svg><svg width="14" height="14" viewBox="0 0 14 14" y="1655"><path d="M14 1.4L12.6 0l-1.9 1.9c-.9-.7-1.9-1-2.8-1-.7 0-1.4.2-1.9.7L1.9 5.8c-1.1 1.1-.9 3 .3 4.6L0 12.6 1.4 14l2.1-2.1c.9.7 1.9 1 2.8 1 .7 0 1.4-.2 1.8-.7L12.4 8c1.1-1.1.9-3-.3-4.6l1.9-2zm-3 5.2l-4.2 4.2c-.1.1-.3.1-.4.1-.3 0-.8-.1-1.3-.5l1.1-1.1-1.4-1.5L3.6 9c-.5-.9-.5-1.6-.3-1.8L7.4 3c.1-.1.3-.1.4-.1.3 0 .8.1 1.3.5L7.4 5.1l1.4 1.4 1.8-1.8c.5.9.6 1.6.4 1.9z"/></svg><svg width="13.9" height="13.9" viewBox="10.6 10.5 13.9 13.9" enable-background="new 10.6 10.5 13.9 13.9" y="1669"><path fill="#6698C8" d="M24.5 11.9l-1.4-1.4-1.9 1.9c-.9-.7-1.9-1-2.8-1-.7 0-1.4.2-1.8.7l-4.2 4.2c-1.1 1.1-.9 3 .3 4.6L10.6 23l1.4 1.4 2.1-2.1c.9.7 1.9 1 2.8 1 .7 0 1.4-.2 1.8-.7l4.2-4.2c1.1-1.1.9-3-.3-4.6l1.9-1.9zm-3 5.2l-4.2 4.2c-.1.1-.3.1-.4.1-.3 0-.8-.1-1.3-.5l1.1-1.1-1.4-1.4-1.1 1.1c-.5-.8-.5-1.6-.3-1.8l4.2-4.2c.1-.1.3-.1.4-.1.3 0 .8.1 1.3.5L18 15.7l1.4 1.4 1.8-1.8c.4.8.5 1.5.3 1.8z"/></svg><svg width="13.9" height="13.9" viewBox="10.6 10.5 13.9 13.9" enable-background="new 10.6 10.5 13.9 13.9" y="1683"><path fill="#dfaf25" d="M24.5 11.9l-1.4-1.4-1.9 1.9c-.9-.7-1.9-1-2.8-1-.7 0-1.4.2-1.8.7l-4.2 4.2c-1.1 1.1-.9 3 .3 4.6L10.6 23l1.4 1.4 2.1-2.1c.9.7 1.9 1 2.8 1 .7 0 1.4-.2 1.8-.7l4.2-4.2c1.1-1.1.9-3-.3-4.6l1.9-1.9zm-3 5.2l-4.2 4.2c-.1.1-.3.1-.4.1-.3 0-.8-.1-1.3-.5l1.1-1.1-1.4-1.4-1.1 1.1c-.5-.8-.5-1.6-.3-1.8l4.2-4.2c.1-.1.3-.1.4-.1.3 0 .8.1 1.3.5L18 15.7l1.4 1.4 1.8-1.8c.4.8.5 1.5.3 1.8z"/></svg><svg width="13.9" height="13.9" viewBox="10.6 10.5 13.9 13.9" enable-background="new 10.6 10.5 13.9 13.9" y="1697"><path fill="#e68a28" d="M24.5 11.9l-1.4-1.4-1.9 1.9c-.9-.7-1.9-1-2.8-1-.7 0-1.4.2-1.8.7l-4.2 4.2c-1.1 1.1-.9 3 .3 4.6L10.6 23l1.4 1.4 2.1-2.1c.9.7 1.9 1 2.8 1 .7 0 1.4-.2 1.8-.7l4.2-4.2c1.1-1.1.9-3-.3-4.6l1.9-1.9zm-3 5.2l-4.2 4.2c-.1.1-.3.1-.4.1-.3 0-.8-.1-1.3-.5l1.1-1.1-1.4-1.4-1.1 1.1c-.5-.8-.5-1.6-.3-1.8l4.2-4.2c.1-.1.3-.1.4-.1.3 0 .8.1 1.3.5L18 15.7l1.4 1.4 1.8-1.8c.4.8.5 1.5.3 1.8z"/></svg><svg width="13.9" height="13.9" viewBox="10.6 10.5 13.9 13.9" enable-background="new 10.6 10.5 13.9 13.9" y="1711"><path fill="#b15926" d="M24.5 11.9l-1.4-1.4-1.9 1.9c-.9-.7-1.9-1-2.8-1-.7 0-1.4.2-1.8.7l-4.2 4.2c-1.1 1.1-.9 3 .3 4.6L10.6 23l1.4 1.4 2.1-2.1c.9.7 1.9 1 2.8 1 .7 0 1.4-.2 1.8-.7l4.2-4.2c1.1-1.1.9-3-.3-4.6l1.9-1.9zm-3 5.2l-4.2 4.2c-.1.1-.3.1-.4.1-.3 0-.8-.1-1.3-.5l1.1-1.1-1.4-1.4-1.1 1.1c-.5-.8-.5-1.6-.3-1.8l4.2-4.2c.1-.1.3-.1.4-.1.3 0 .8.1 1.3.5L18 15.7l1.4 1.4 1.8-1.8c.4.8.5 1.5.3 1.8z"/></svg><svg width="16" height="11" viewBox="0 0 16 11" y="1725"><path d="M8 6.2L16 0H0zm0 1.7L0 1.6V11h16V1.6z" fill="#010101"/></svg><svg width="13" height="2" viewBox="0 0 13 2" y="1736"><path d="M0 0h13v2H0z"/></svg><svg width="13" height="2" viewBox="0 0 13 2" y="1738"><path fill="#6699ca" d="M0 0h13v2H0z"/></svg><svg width="13" height="2" viewBox="0 0 13 2" y="1740"><path fill="#8F8F8F" d="M0 0h13v2H0z"/></svg><svg width="13" height="2" viewBox="0 0 13 2" y="1742"><path fill="#fff" d="M0 0h13v2H0z"/></svg><svg width="14" height="14" viewBox="0 0 14 14" y="1744"><path d="M9.3 4.7c-.1-.2-.3-.3-.6-.4-.3-.2-.6-.2-.9-.2H5.1v5.8h1.5v-2h1.2c.4 0 .7-.1.9-.2.3 0 .5-.2.6-.4.2-.2.3-.4.4-.6.1-.2.1-.5.1-.7 0-.2 0-.5-.1-.7-.1-.2-.2-.4-.4-.6zm-2.7.6h1.2c.1 0 .2.1.3.1.1 0 .1.1.2.2 0 .1.1.2.1.4s0 .3-.1.4c0 .1-.1.2-.2.2s-.2.1-.3.1H6.6V5.3zM7 0C3.1 0 0 3.1 0 7s3.1 7 7 7 7-3.1 7-7-3.1-7-7-7zm0 12.2c-2.9 0-5.2-2.4-5.2-5.2S4.1 1.8 7 1.8s5.2 2.4 5.2 5.2-2.3 5.2-5.2 5.2z"/></svg><svg width="12.1" height="13.9" viewBox="0 0 12.1 13.9" y="1758"><path d="M2.1.2L2 .3c-.4.3-.5.8-.2 1.2l2.1 2.9c.3.4.9.5 1.3.2l.1-.1c.4-.3.5-.9.2-1.3L3.4.4C3.1 0 2.5-.1 2.1.2zm6.5 9l-.1.1c-.4.3-.5.9-.2 1.3l2.1 2.9c.3.4.9.5 1.3.2l.1-.1c.4-.3.5-.9.2-1.3L9.9 9.4c-.3-.4-.9-.5-1.3-.2zM3.1 5L1 2.1C-.7 3.3-.2 6.9 2 10s5.5 4.7 7.2 3.5l-2-2.8c-1-.4-2-1.3-2.8-2.4C3.7 7.2 3.2 6 3.1 5z"/></svg><svg width="20.5" height="23.9" viewBox="0 0 20.5 23.9" y="1772"><path d="M0 0l20.5 12L0 23.9z"/></svg><svg width="20.5" height="23.9" viewBox="0 0 20.5 23.9" y="1796"><path fill="#fff" d="M0 0l20.5 12L0 23.9z"/></svg><svg width="13" height="13" viewBox="0 0 13 13" y="1820"><path d="M13 5.5H7.5V0h-2v5.5H0v2h5.5V13h2V7.5H13z"/></svg><svg width="13" height="13" viewBox="0 0 13 13" y="1833"><path fill="#6699ca" d="M13 5.5H7.5V0h-2v5.5H0v2h5.5V13h2V7.5H13z"/></svg><svg width="13" height="13" viewBox="0 0 13 13" y="1846"><path fill="#8F8F8F" d="M13 5.5H7.5V0h-2v5.5H0v2h5.5V13h2V7.5H13z"/></svg><svg width="13" height="13" viewBox="0 0 13 13" y="1859"><path fill="#fff" d="M13 5.5H7.5V0h-2v5.5H0v2h5.5V13h2V7.5H13z"/></svg><svg width="16" height="14" viewBox="0 0 16 14" y="1872"><path fill="#010101" d="M16 5.5h-2.4V3.1l-3-3.1H2.4v5.5H0v6.1h2.4V14h11.3v-2.3H16V5.5zM3.7 1.3H10v2.3h2.3v1.5H3.7V1.3zm8.6 11.4H3.7v-2.4h8.6v2.4z"/></svg><svg width="14" height="14" viewBox="0 0 14 14" y="1886"><path d="M9.7 7.2c.9-.8 1.4-1.9 1.4-3.1C11.1 1.8 9.3 0 7 0S2.9 1.8 2.9 4.1c0 1.2.6 2.3 1.4 3.1C-.4 7.9 0 10.9 0 14h14c0-3 .3-6-4.3-6.8zM7 2c1.2 0 2.1.9 2.1 2.1S8.2 6.2 7 6.2s-2.1-.9-2.1-2.1S5.8 2 7 2zM2 12c0-1 .2-1.6.5-2C2.9 9.6 4 9 7 9c2.8 0 3.9.5 4.4 1 .4.4.6 1.1.6 2H2z"/></svg><svg width="14" height="14" viewBox="0 0 14 14" y="1900"><path d="M11.3 5.5l-.4.4-6.3 6.3-.4 1.8 1.8-.4 6-6 .6.6-1.9 1.9.7.7L14 8.2zM2 3.1h2.2v1.1h3.3V3.1h3.1v-2H7.5V0H4.2v1.1H0V14l2-2z"/></svg><svg width="14" height="14" viewBox="0 0 14 14" y="1914"><path d="M14 14l-.7-5.8-5.8.8 2.5 1.9c-.8.7-1.8 1.1-3 1.1-2.7 0-5-2.2-5-5s2.2-5 5-5c1.7 0 3.3.9 4.1 2.2l1.7-1.1C11.6 1.3 9.4 0 7 0 3.1 0 0 3.2 0 7c0 3.9 3.1 7 7 7 1.8 0 3.5-.7 4.7-1.8L14 14z"/></svg><svg width="14" height="14" viewBox="0 0 14 14" y="1928"><path d="M14 12.5L10.4 9c.6-.9 1-2 1-3.2C11.4 2.6 8.9 0 5.7 0 2.6 0 0 2.6 0 5.7s2.6 5.7 5.7 5.7c1.2 0 2.4-.4 3.3-1.1l3.6 3.6 1.4-1.4zm-8.3-3C3.7 9.5 2 7.8 2 5.7S3.7 2 5.7 2s3.7 1.7 3.7 3.7-1.6 3.8-3.7 3.8z"/></svg><svg width="14" height="14" viewBox="0 0 14 14" y="1942"><path d="M0 8.6h14V14H0z"/><circle cx="7" cy="3.4" r="3.4"/></svg><svg width="16" height="13" viewBox="0 0 16 13" y="1956"><path d="M16 1.5c-.6.3-1.2.4-1.9.5.7-.4 1.2-1 1.4-1.8-.6.4-1.3.6-2.1.8-.6-.6-1.5-1-2.4-1-1.7 0-3.2 1.5-3.2 3.3 0 .3 0 .5.1.7C5.2 3.9 2.7 2.6 1.1.6c-.3.5-.4 1-.4 1.7 0 1.1.6 2.1 1.5 2.7-.5 0-1-.2-1.5-.4 0 1.6 1.1 2.9 2.6 3.2-.3.1-.6.1-.9.1-.2 0-.4 0-.6-.1.4 1.3 1.6 2.3 3.1 2.3-1.1.9-2.5 1.4-4.1 1.4H0c1.5 1 3.2 1.5 5 1.5 6 0 9.3-5 9.3-9.3v-.4c.7-.5 1.3-1.1 1.7-1.8z"/></svg><svg width="14" height="14" viewBox="0 0 14 14" y="1969"><path d="M8 8v4H2V8h6m4 1.3v1.4l-1.3-.4-.8-.3.8-.3 1.3-.4M10 6H0v8h10v-1.8l4 1.3v-7l-4 1.3V6zM7.4 2c.4 0 .6.3.6.7 0 .3-.2.6-.6.6-.3 0-.5-.2-.6-.4l-.1-.2.1-.3c.1-.2.3-.4.6-.4M2.7 2c.3 0 .5.2.6.4l.1.3-.2.2c-.1.2-.3.4-.5.4-.4 0-.7-.3-.7-.6 0-.4.3-.7.7-.7m4.7-2C6.3 0 5.5.6 5 1.5 4.6.6 3.7 0 2.7 0 1.2 0 0 1.2 0 2.7c0 1.5 1.2 2.7 2.7 2.7 1 0 1.9-.6 2.4-1.5.4.9 1.3 1.5 2.4 1.5 1.5 0 2.7-1.2 2.7-2.7C10 1.2 8.9 0 7.4 0z"/></svg><svg width="17.1" height="17.1" viewBox="0 0 17.1 17.1" y="1983"><path fill="#010101" d="M17.1 1.1L16 0 8.5 7.5 1.1 0 0 1.1l7.5 7.4L0 16l1.1 1.1 7.4-7.5 7.5 7.5 1.1-1.1-7.5-7.5z"/></svg><svg viewBox="0 0 292.3 365.5" width="292.3" height="365.5" y="2001"><path fill="#D9D9D9" d="M118.4 2.1"/><path fill="#D9D9D9" d="M290.8 1.1h-36.2L145.8 47.9 37.7 1.6H1.6v12l112.2 48.1L1.6 110v12.1h36.1l108.5-46.5 108.4 46.5h36.2V110L178.3 61.8l112.5-48.2zM26.3 53.8c.4 0 1.2-4.4 1.2-4.4s2.4 1 2.8.7c.3-.2-4-14.5-4-14.5s-4.2 14.2-4 14.5c.2.3 2.8-.7 2.8-.7s.8 4.4 1.2 4.4z"/><circle fill="#D9D9D9" cx="26.3" cy="32.5" r="1.6"/><circle fill="#D9D9D9" cx="23.1" cy="35.7" r="1.6"/><circle fill="#D9D9D9" cx="29.5" cy="35.7" r="1.6"/><path fill="#D9D9D9" d="M70.8 73.8c.4 0 1.2-4.4 1.2-4.4s2.4 1 2.8.7c.3-.2-4-14.5-4-14.5s-4.2 14.2-4 14.5c.2.3 2.8-.7 2.8-.7s.8 4.4 1.2 4.4z"/><circle fill="#D9D9D9" cx="70.8" cy="52.5" r="1.6"/><circle fill="#D9D9D9" cx="67.5" cy="55.7" r="1.6"/><circle fill="#D9D9D9" cx="74" cy="55.7" r="1.6"/><path fill="#D9D9D9" d="M26.3 91c.4 0 1.2-4.4 1.2-4.4s2.4 1 2.8.7c.3-.2-4-14.5-4-14.5s-4.2 14.2-4 14.5c.2.3 2.8-.7 2.8-.7s.8 4.4 1.2 4.4z"/><circle fill="#D9D9D9" cx="26.3" cy="69.7" r="1.6"/><circle fill="#D9D9D9" cx="23.1" cy="72.9" r="1.6"/><circle fill="#D9D9D9" cx="29.5" cy="72.9" r="1.6"/><path fill="#D9D9D9" d="M146.2 42.6c.4 0 1.2-4.4 1.2-4.4s2.4 1 2.8.7c.3-.2-4-14.5-4-14.5s-4.2 14.2-4 14.5c.2.3 2.8-.7 2.8-.7s.8 4.4 1.2 4.4z"/><circle fill="#D9D9D9" cx="146.2" cy="21.3" r="1.6"/><circle fill="#D9D9D9" cx="143" cy="24.5" r="1.6"/><circle fill="#D9D9D9" cx="149.4" cy="24.5" r="1.6"/><path fill="#D9D9D9" d="M112.8 29.4c.4 0 1.2-4.4 1.2-4.4s2.4 1 2.8.7c.3-.2-4-14.5-4-14.5s-4.2 14.2-4 14.5c.2.3 2.8-.7 2.8-.7s.8 4.4 1.2 4.4z"/><circle fill="#D9D9D9" cx="112.8" cy="8.1" r="1.6"/><circle fill="#D9D9D9" cx="109.5" cy="11.3" r="1.6"/><circle fill="#D9D9D9" cx="116" cy="11.3" r="1.6"/><path fill="#D9D9D9" d="M179.1 29.1c.4 0 1.2-4.4 1.2-4.4s2.4 1 2.8.7c.3-.2-4-14.5-4-14.5s-4.2 14.2-4 14.5c.2.3 2.8-.7 2.8-.7s.8 4.4 1.2 4.4z"/><circle fill="#D9D9D9" cx="179.1" cy="7.8" r="1.6"/><circle fill="#D9D9D9" cx="175.9" cy="11" r="1.6"/><circle fill="#D9D9D9" cx="182.4" cy="11" r="1.6"/><path fill="#D9D9D9" d="M113.4 118.5c.4 0 1.2-4.4 1.2-4.4s2.4 1 2.8.7c.3-.2-4-14.5-4-14.5s-4.2 14.2-4 14.5c.2.3 2.8-.7 2.8-.7s.8 4.4 1.2 4.4z"/><circle fill="#D9D9D9" cx="113.4" cy="97.2" r="1.6"/><circle fill="#D9D9D9" cx="110.2" cy="100.5" r="1.6"/><circle fill="#D9D9D9" cx="116.7" cy="100.5" r="1.6"/><path fill="#D9D9D9" d="M146.3 106.8c.4 0 1.2-4.4 1.2-4.4s2.4 1 2.8.7c.3-.2-4-14.5-4-14.5s-4.2 14.2-4 14.5c.2.3 2.8-.7 2.8-.7s.8 4.4 1.2 4.4z"/><circle fill="#D9D9D9" cx="146.3" cy="85.5" r="1.6"/><circle fill="#D9D9D9" cx="143" cy="88.7" r="1.6"/><circle fill="#D9D9D9" cx="149.5" cy="88.7" r="1.6"/><path fill="#D9D9D9" d="M179.4 118.9c.4 0 1.2-4.4 1.2-4.4s2.4 1 2.8.7c.3-.2-4-14.5-4-14.5s-4.2 14.2-4 14.5c.2.3 2.8-.7 2.8-.7s.8 4.4 1.2 4.4z"/><circle fill="#D9D9D9" cx="179.4" cy="97.6" r="1.6"/><circle fill="#D9D9D9" cx="176.2" cy="100.8" r="1.6"/><circle fill="#D9D9D9" cx="182.6" cy="100.8" r="1.6"/><path fill="#D9D9D9" d="M267 53.9c-.4 0-1.2-4.4-1.2-4.4s-2.4 1-2.8.7c-.3-.2 4-14.5 4-14.5s4.2 14.2 4 14.5c-.2.3-2.8-.7-2.8-.7s-.8 4.4-1.2 4.4z"/><circle fill="#D9D9D9" cx="267" cy="32.6" r="1.6"/><circle fill="#D9D9D9" cx="270.2" cy="35.8" r="1.6"/><circle fill="#D9D9D9" cx="263.7" cy="35.8" r="1.6"/><path fill="#D9D9D9" d="M222.5 73.9c-.4 0-1.2-4.4-1.2-4.4s-2.4 1-2.8.7c-.3-.2 4-14.5 4-14.5s4.2 14.2 4 14.5c-.2.3-2.8-.7-2.8-.7s-.8 4.4-1.2 4.4z"/><circle fill="#D9D9D9" cx="222.5" cy="52.6" r="1.6"/><circle fill="#D9D9D9" cx="225.7" cy="55.8" r="1.6"/><circle fill="#D9D9D9" cx="219.3" cy="55.8" r="1.6"/><path fill="#D9D9D9" d="M267 91.1c-.4 0-1.2-4.4-1.2-4.4s-2.4 1-2.8.7c-.3-.2 4-14.5 4-14.5s4.2 14.2 4 14.5c-.2.3-2.8-.7-2.8-.7s-.8 4.4-1.2 4.4z"/><circle fill="#D9D9D9" cx="267" cy="69.8" r="1.6"/><circle fill="#D9D9D9" cx="270.2" cy="73" r="1.6"/><circle fill="#D9D9D9" cx="263.8" cy="73" r="1.6"/><path fill="#D9D9D9" d="M152 219.6c6.9-1 19.9-7 24.9-10.3 5-3.3 18.9-10.1 18.8-25.4-.1-15.3-12.4-19.8-20.7-21-4.8-.7-12.4-1.4-21 0-6.5 1.1-12.4 5.1-12.4 5.1 4.6.8 8.3-1.6 11.9-2.2 3.6-.6 26-2.2 33.1 5.9 7.1 8.1 6.1 15.4 2.6 21.5-9.9 12-25.1 16.7-37.3 23l.1 3.4zm-31.4-46.5c.3-.8 12.7-5 12.3-2.8-.4 2.1-3.5 3.7-5.4 4.1-1.9.2-7.1-.5-6.9-1.3zm26.8 171l-1 .1-1.1-7.5 1.1-.1zm47.1-180.9c-6.7-6.6-24-8.6-37.5-6.4-1.3-3-1.2-6.7-1.1-10.3.5-2.7-.3-5.1-.7-5.6-2.7-3-7.3-5.7-12.2-4.5-4.7 1.1-6.3 2.4-6.5 5.6l5.5-.2 1.4.1s.8 1.3.1 2.3c-.6 1-1.9 0-1.9 0l-.1-2.3-5 .2c-.2 3.4 1.1 8 1.8 12.2.5 2.5 1 5.3.6 7.3l-4.5 1.7c-5.6-3.2-10.7 1.2-15 4.3-3.7 2.4-9.2 3.9-12.9 3.2l-1.1 1.1c-.3 3.3 2.5 7.1 2.2 9.5 0 0-4.6 3.5-7.2 0-2.6-3.5-8.6-.3-11.7-.3-3.1 0-5-1.8-5.8-.6-.8 1.2 3.2 3.2 3.2 3.2-2.5 1.9-2.9 3.5-2.4 4.4.6.9 3-1.3 5.5-3s5.7-3.5 9.5-.2c3.8 3.2 6.6.7 9.8-.1 3.9 4.4 10.1 1.4 15.2.3 3.7-.8 5.6 1.4 8.8.3 3.2-1 3.1-8 7.5-9.1 0 0 .1 5.9-1 10.7-.7 3.3-2 6 0 24.5-10.6 2.7-21.7 6.6-29.5 16.1-4.4 5.4-6.3 11.8-5.4 19.3 4.4 16.7 22.7 22.2 37.3 26.6-2.1 9.4.4 22.2-2 31.9-4.1 1.4-9.4 3.1-11.6 8.3-2.7 6.2-1 12.5.9 15.7 1.9 3.2 7.4 6.9 12.9 7.5.4 3.6-.9 8.8 2.1 10.7 3 1.9 7.1-.4 7.5-2.1.4-1.7-1-4.2-.8-6 .8-7 8.9-15.3 10.4-17.5 1.5-2.3 5.3-1.9 3.5-4.3-1.8-2.4-8.8 3.1-12.1 7.5-.6-2.9-.7-7.2-.7-11.6 8.2-1.6 21.6-6 25.7-9.7 6-5.4 8.4-12.7 8.1-20.5-.1-18.6-21.8-23.7-33.2-31.1 0-1.6.2-14.1.3-24.3 12.9-3.8 33.3-13.1 40.4-21 7.4-8.2 10.8-18.1 10.7-24.3.6-6.3-2.3-12.8-9-19.5zM150.3 140l2.1 2.1 1.1 1.1-.7.7s-3-2.7-3.2-3.2c-.2-.5.7-.7.7-.7zm-4.8 6.3l5 .5s1.5.2 1.5 1c0 .9-3.1 2.1-6 .8s-.5-2.3-.5-2.3zm-4.5 3c.5-1 10.4.7 10.7 2.1.3 1.5-2.3 3.1-2.1 4.3.2 1.2 2.7 2.2 2.7 2.2-4.1.5-10.2 2.6-10.2 2.6l-.7-6.5c.1.1-.9-3.7-.4-4.7zm-21.4 33s-5.3 3.9-7.8.4c0 0 4.2-2.8 7.4-2.6 3.2.2.4 2.2.4 2.2zm21.5 141s.3 3.1 3 2.8c2.8-.3.5-10.5.1-16.2 0-1.2-.2-2.6 1.1-3.2l-1.1-1.1c1.6-10.1 1.6-22.1 0-32.1 1.2 0 2.6-.2 3.2 1.1-1.6 2.6-1.6 7.1 0 9.6 2.8 1.8-2.4 6.3 3.2 5.4l-.8-.7 1.1-1.1.8.7c-1.3.6-1.1 2-1.1 3.2-1 .3-1.5-.5-2.1-1.1-3.5 10.5-2.2 24.8-.9 35.9 0 0-2.3 1.6-4.4 1.6-2.1-.1-3.2-1.4-4-3-.8-1.6 1.8-6.7 1.8-6.7.1 1.8-.1 3.3.1 4.9zm-10-6.7c-.9-3.6 4.6-6.8 8.3-9.7-1.3 4.2-3.8 7.7-8.3 9.7zm25.5 7.6c-5.6 8.6-13.1 10.9-18.8 8.3-2.4-1.9-5.9-3.2-5.8-8 .1-6.9 9.1-12.3 9.1-12.3s-5.3 6.5-5.7 10.5c-.5 4.6 1.8 7 5.6 8.3 3.7 1.1 12-3.7 15.6-6.8zM124 263c-10.6-5.2-15.6-13.2-15.7-20.7-.1-7.5 3.1-12.3 9.5-17.4 6.2-5 15.2-8.6 21.8-10.7v5.7c-8.5 2.4-21.2 8.5-23.7 14.9-2.6 6.4-1.2 9.8.8 13.7 3.3 6.5 10 10.3 17.1 13 3 1.1 17.3 5.6 21.8 7.3 4.5 1.7 18.1 7.5 18.8 15.8.3 4-2.6 9.3-7.1 13.2-4.5 4-10.6 6.7-15 8.5.1-1.2.1-2.3.2-3.4h.1c12.6-4.8 18.7-13.9 17.3-18.8-1.4-4.9-8.4-8.7-15.4-11.5-6.9-2.6-20.6-4.8-30.5-9.6zm29.9 20.2l-1.1-7.5c5.1 3.5 13.8 5.3 13.6 11.9-.1 3.3-9.8 9.7-13.6 12.1.1-1.2.2-2 .2-2-.5-5.2 5.9-10.1.9-14.5zm3.2-24.7c11.3 4 19.8 10.8 23.1 17.1 3.2 6.3 2.9 13.3.5 18.3-1.6 3.3-6.8 8.1-12.1 10.9-6 3.3-12.6 5-16.4 5.8 0-.7 0-1.3.1-2 3.4-1.1 9.9-3.5 15.1-6.3 4.2-2.2 12.1-9.7 10.7-19.7-.8-5.7-7.7-10.9-17.2-15.3-6.4-2.9-14.9-5.5-20.3-7.6-12.8-4.9-21.9-11.1-22.1-17.4-.5-12.9 12.5-14.9 21.2-18.7l-.3 5.4s-5.4.9-8.4 2.8c-3 2-4.9 4.2-4.2 9.8.2 1.4 3.9 6.1 9 8.4 4.7 2.3 15.2 6.4 21.3 8.5zm-18.2-24.6l-.8 13.3c-1.6-.7-3.1-1.4-4.2-2.3-2.7-2.1-3.2-6-2.4-7.4 2.2-3.7 7.4-3.6 7.4-3.6zm7.7-37.7c-.8 1.8.8 53.8.8 53.8s-2.1-.4-4.7-1.2c-.1-2.4-.4-6.3-.7-8.5-.5-3.2 2.6-30.6-.9-44.3 5.4-4.6-1.3-15 4.1-18.2 1.4-.8 3.1-1.5 6.3-.8-6.1 2.5-1.3 8.2-4.2 12.9.6.5 1.2 1.4 2.1 1.1l4.1-2.6-.3 3.3c-1.4-.3-5.8 2.7-6.6 4.5zm44.2 7.4c-7.2 7.7-23.2 15.3-37.7 20.4.1-5.5.1-9.7.1-9.7.1-1.4.3-3 .6-4.6 3.4-.7 10.3-3.7 14-5.8 6.3-3.6 13.8-8.1 17.3-14 3.6-6 2.1-11.6-1.7-16-3.9-4.4-16.3-5-20-5-10.1-.1-15.9 1.7-23.1 4.2-7.2 2.5-6.5 8.6-8.3 9.4-1.8.8-6.8-1.6-9.3-.2 0 0 1.5-1.8.3-3.6s-4-.9-6.5-.1c-5.4 1.7-7.2 2.3-7.6-4.6 4-1.4 8.6-1.3 11.8-4.3 0 0 7.3-5.3 9.6-5.4 2.3-.1 3 1.1 3.5 1.7 5.9-2.3 14.8-5.6 25.5-6.6 7.8-.8 16.2-.4 22.6 1.7 6.4 2.1 18 11.3 18.3 20.5.2 9.2-2 14.1-9.4 22zM156 172.9c9.2.5 22.3.3 25.1 5.6 2.8 5.3-.1 9.8-2.5 12.6-6.2 7.7-21 14-24.3 15.3 1.8-9.9 4.5-23.1 1.7-33.5zm-10.1 192.6l-.8-.5C55.5 312.9 5.4 228.9.4 122.2c-.2-6-.4-12.2-.4-18.3V0h292.3v104.2c0 6-.2 12.1-.4 18-5.1 106.4-55.3 190.4-145.2 242.9l-.8.4zM3.2 3.2v100.7c0 6.1.1 12.2.4 18.2 4.9 105.3 54.1 188.2 142.3 239.8 88.4-52 137.8-134.9 142.8-239.8.3-5.9.4-11.9.4-17.8V3.2H3.2zM1.6 120.5h289.2v3.2H1.6z"/></svg><svg width="24" height="32.1" viewBox="0 0 24 32.1" y="2367"><path fill="#010101" d="M24 12c0-6.6-5.4-12-12-12S0 5.4 0 12c0 3.4 3.8 8.7 3.8 8.7L12 31.3l8.1-10.4S24 15.5 24 12z"/></svg><svg width="10.5" height="10" viewBox="0 0 10.5 10" y="2400"><path d="M10.5 0L1 4.8V0H0v10h1V5.3l9.5 4.7z"/></svg><svg width="10.5" height="10" viewBox="0 0 10.5 10" y="2410"><path d="M9.5 0v4.7L0 0v10l9.5-4.7V10h1V0z"/></svg><svg width="10" height="10" viewBox="0 0 10 10" y="2420"><path d="M0 0v10l10-5z"/></svg><svg width="10" height="10" viewBox="0 0 10 10" y="2430"><path d="M10 10V0L0 5z"/></svg><svg viewBox="0 0 5.7 10" width="5.7" height="10" y="2440"><path stroke="#6698c8" stroke-miterlimit="10" d="M.4.3L5 5 .4 9.6" fill="none"/></svg><svg viewBox="0 0 5.7 10" width="5.7" height="10" y="2450"><path stroke="#000" stroke-miterlimit="10" d="M.4.3L5 5 .4 9.6" fill="none"/></svg><svg viewBox="0 0 5.7 10" width="5.7" height="10" y="2460"><path stroke="#fff" stroke-miterlimit="10" d="M.4.3L5 5 .4 9.6" fill="none"/></svg><svg viewBox="0 0 19.1 14.1" width="19.1" height="14.1" y="2470"><path fill="#010101" d="M0 0c0 1.5-.1 3-.1 4.5h1.2v-.1c.1-.5.1-1.1.2-1.6.1-.6.4-1.2 1.1-1.4s1.4-.3 2.1-.1c.3.1.6.3.7.7.1.3.1.6.1.9v8.8c-.1.6-.3.9-1 1-.4.1-.9 0-1.3 0h-.2v1.2h7v-1.2h-.2c-.4 0-.8 0-1.3-.1-.6-.1-.8-.3-.9-.9-.1-.4-.1-.9-.1-1.3V2.8c0-.3 0-.6.1-1s.3-.7.7-.7c.5-.1 1.1-.1 1.6 0 .9.2 1.4.6 1.5 1.5.1.4.1.8.1 1.2v.5h1.2c0-1.5-.1-3-.1-4.5C8.3 0 4.2 0 0 0zm19.1 7h-2.3V4.7h-1.3V7h-2.3v1.2h2.3v2.4h1.3V8.2h2.3z"/></svg><svg width="12.6" height="14" viewBox="0 0 12.6 14" y="2485"><path fill="#010101" d="M0 0c0 1.5-.1 3-.1 4.5h1.2v-.1c.1-.5.1-1.1.2-1.6.1-.6.4-1.2 1.1-1.4.7-.2 1.4-.3 2.1-.1.3.1.6.3.7.7.1.3.1.6.1.9v8.8c-.1.6-.3.9-1 1-.4.1-.9 0-1.3 0h-.2v1.2h7v-1.2h-.2c-.4 0-.8 0-1.3-.1-.6-.1-.8-.3-.9-.9-.1-.4-.1-.9-.1-1.3V2.8c0-.3 0-.6.1-1s.3-.7.7-.7c.5-.1 1.1-.1 1.6 0 .9.2 1.4.6 1.5 1.5.1.4.1.8.1 1.2v.5h1.2c0-1.5-.1-3-.1-4.5C8.3 0 4.2 0 0 0z"/></svg><svg viewBox="0 0 19.2 14" width="19.2" height="14" y="2499"><path fill="#010101" d="M0 0c0 1.5-.1 3-.1 4.5h1.2v-.1c.1-.5.1-1.1.2-1.6.1-.6.4-1.2 1.1-1.4s1.4-.3 2.1-.1c.3.1.6.3.7.7.1.3.1.6.1.9v8.8c-.1.6-.3.9-1 1-.4.1-.9 0-1.3 0h-.2v1.2h7v-1.2h-.2c-.4 0-.8 0-1.3-.1-.6-.1-.8-.3-.9-.9-.1-.4-.1-.9-.1-1.3V2.8c0-.3 0-.6.1-1s.3-.7.7-.7c.5-.1 1.1-.1 1.6 0 .9.2 1.4.6 1.5 1.5.1.4.1.8.1 1.2v.5h1.2c0-1.5-.1-3-.1-4.5C8.3 0 4.2 0 0 0zm13.3 6.8h5.9V8h-5.9z"/></svg><svg viewBox="0 0 292.3 365.5" width="292.3" height="365.5" y="2513"><path fill="#888" d="M118.4 2.1"/><path fill="#888" d="M290.8 1.1h-36.2L145.8 47.9 37.7 1.6H1.6v12l112.2 48.1L1.6 110v12.1h36.1l108.5-46.5 108.4 46.5h36.2V110L178.3 61.8l112.5-48.2zM26.3 53.8c.4 0 1.2-4.4 1.2-4.4s2.4 1 2.8.7c.3-.2-4-14.5-4-14.5s-4.2 14.2-4 14.5c.2.3 2.8-.7 2.8-.7s.8 4.4 1.2 4.4z"/><circle fill="#888" cx="26.3" cy="32.5" r="1.6"/><circle fill="#888" cx="23.1" cy="35.7" r="1.6"/><circle fill="#888" cx="29.5" cy="35.7" r="1.6"/><path fill="#888" d="M70.8 73.8c.4 0 1.2-4.4 1.2-4.4s2.4 1 2.8.7c.3-.2-4-14.5-4-14.5s-4.2 14.2-4 14.5c.2.3 2.8-.7 2.8-.7s.8 4.4 1.2 4.4z"/><circle fill="#888" cx="70.8" cy="52.5" r="1.6"/><circle fill="#888" cx="67.5" cy="55.7" r="1.6"/><circle fill="#888" cx="74" cy="55.7" r="1.6"/><path fill="#888" d="M26.3 91c.4 0 1.2-4.4 1.2-4.4s2.4 1 2.8.7c.3-.2-4-14.5-4-14.5s-4.2 14.2-4 14.5c.2.3 2.8-.7 2.8-.7s.8 4.4 1.2 4.4z"/><circle fill="#888" cx="26.3" cy="69.7" r="1.6"/><circle fill="#888" cx="23.1" cy="72.9" r="1.6"/><circle fill="#888" cx="29.5" cy="72.9" r="1.6"/><path fill="#888" d="M146.2 42.6c.4 0 1.2-4.4 1.2-4.4s2.4 1 2.8.7c.3-.2-4-14.5-4-14.5s-4.2 14.2-4 14.5c.2.3 2.8-.7 2.8-.7s.8 4.4 1.2 4.4z"/><circle fill="#888" cx="146.2" cy="21.3" r="1.6"/><circle fill="#888" cx="143" cy="24.5" r="1.6"/><circle fill="#888" cx="149.4" cy="24.5" r="1.6"/><path fill="#888" d="M112.8 29.4c.4 0 1.2-4.4 1.2-4.4s2.4 1 2.8.7c.3-.2-4-14.5-4-14.5s-4.2 14.2-4 14.5c.2.3 2.8-.7 2.8-.7s.8 4.4 1.2 4.4z"/><circle fill="#888" cx="112.8" cy="8.1" r="1.6"/><circle fill="#888" cx="109.5" cy="11.3" r="1.6"/><circle fill="#888" cx="116" cy="11.3" r="1.6"/><path fill="#888" d="M179.1 29.1c.4 0 1.2-4.4 1.2-4.4s2.4 1 2.8.7c.3-.2-4-14.5-4-14.5s-4.2 14.2-4 14.5c.2.3 2.8-.7 2.8-.7s.8 4.4 1.2 4.4z"/><circle fill="#888" cx="179.1" cy="7.8" r="1.6"/><circle fill="#888" cx="175.9" cy="11" r="1.6"/><circle fill="#888" cx="182.4" cy="11" r="1.6"/><path fill="#888" d="M113.4 118.5c.4 0 1.2-4.4 1.2-4.4s2.4 1 2.8.7c.3-.2-4-14.5-4-14.5s-4.2 14.2-4 14.5c.2.3 2.8-.7 2.8-.7s.8 4.4 1.2 4.4z"/><circle fill="#888" cx="113.4" cy="97.2" r="1.6"/><circle fill="#888" cx="110.2" cy="100.5" r="1.6"/><circle fill="#888" cx="116.7" cy="100.5" r="1.6"/><path fill="#888" d="M146.3 106.8c.4 0 1.2-4.4 1.2-4.4s2.4 1 2.8.7c.3-.2-4-14.5-4-14.5s-4.2 14.2-4 14.5c.2.3 2.8-.7 2.8-.7s.8 4.4 1.2 4.4z"/><circle fill="#888" cx="146.3" cy="85.5" r="1.6"/><circle fill="#888" cx="143" cy="88.7" r="1.6"/><circle fill="#888" cx="149.5" cy="88.7" r="1.6"/><path fill="#888" d="M179.4 118.9c.4 0 1.2-4.4 1.2-4.4s2.4 1 2.8.7c.3-.2-4-14.5-4-14.5s-4.2 14.2-4 14.5c.2.3 2.8-.7 2.8-.7s.8 4.4 1.2 4.4z"/><circle fill="#888" cx="179.4" cy="97.6" r="1.6"/><circle fill="#888" cx="176.2" cy="100.8" r="1.6"/><circle fill="#888" cx="182.6" cy="100.8" r="1.6"/><path fill="#888" d="M267 53.9c-.4 0-1.2-4.4-1.2-4.4s-2.4 1-2.8.7c-.3-.2 4-14.5 4-14.5s4.2 14.2 4 14.5c-.2.3-2.8-.7-2.8-.7s-.8 4.4-1.2 4.4z"/><circle fill="#888" cx="267" cy="32.6" r="1.6"/><circle fill="#888" cx="270.2" cy="35.8" r="1.6"/><circle fill="#888" cx="263.7" cy="35.8" r="1.6"/><path fill="#888" d="M222.5 73.9c-.4 0-1.2-4.4-1.2-4.4s-2.4 1-2.8.7c-.3-.2 4-14.5 4-14.5s4.2 14.2 4 14.5c-.2.3-2.8-.7-2.8-.7s-.8 4.4-1.2 4.4z"/><circle fill="#888" cx="222.5" cy="52.6" r="1.6"/><circle fill="#888" cx="225.7" cy="55.8" r="1.6"/><circle fill="#888" cx="219.3" cy="55.8" r="1.6"/><path fill="#888" d="M267 91.1c-.4 0-1.2-4.4-1.2-4.4s-2.4 1-2.8.7c-.3-.2 4-14.5 4-14.5s4.2 14.2 4 14.5c-.2.3-2.8-.7-2.8-.7s-.8 4.4-1.2 4.4z"/><circle fill="#888" cx="267" cy="69.8" r="1.6"/><circle fill="#888" cx="270.2" cy="73" r="1.6"/><circle fill="#888" cx="263.8" cy="73" r="1.6"/><path fill="#888" d="M152 219.6c6.9-1 19.9-7 24.9-10.3 5-3.3 18.9-10.1 18.8-25.4-.1-15.3-12.4-19.8-20.7-21-4.8-.7-12.4-1.4-21 0-6.5 1.1-12.4 5.1-12.4 5.1 4.6.8 8.3-1.6 11.9-2.2 3.6-.6 26-2.2 33.1 5.9 7.1 8.1 6.1 15.4 2.6 21.5-9.9 12-25.1 16.7-37.3 23l.1 3.4zm-31.4-46.5c.3-.8 12.7-5 12.3-2.8-.4 2.1-3.5 3.7-5.4 4.1-1.9.2-7.1-.5-6.9-1.3zm26.8 171l-1 .1-1.1-7.5 1.1-.1zm47.1-180.9c-6.7-6.6-24-8.6-37.5-6.4-1.3-3-1.2-6.7-1.1-10.3.5-2.7-.3-5.1-.7-5.6-2.7-3-7.3-5.7-12.2-4.5-4.7 1.1-6.3 2.4-6.5 5.6l5.5-.2 1.4.1s.8 1.3.1 2.3c-.6 1-1.9 0-1.9 0l-.1-2.3-5 .2c-.2 3.4 1.1 8 1.8 12.2.5 2.5 1 5.3.6 7.3l-4.5 1.7c-5.6-3.2-10.7 1.2-15 4.3-3.7 2.4-9.2 3.9-12.9 3.2l-1.1 1.1c-.3 3.3 2.5 7.1 2.2 9.5 0 0-4.6 3.5-7.2 0-2.6-3.5-8.6-.3-11.7-.3-3.1 0-5-1.8-5.8-.6-.8 1.2 3.2 3.2 3.2 3.2-2.5 1.9-2.9 3.5-2.4 4.4.6.9 3-1.3 5.5-3s5.7-3.5 9.5-.2c3.8 3.2 6.6.7 9.8-.1 3.9 4.4 10.1 1.4 15.2.3 3.7-.8 5.6 1.4 8.8.3 3.2-1 3.1-8 7.5-9.1 0 0 .1 5.9-1 10.7-.7 3.3-2 6 0 24.5-10.6 2.7-21.7 6.6-29.5 16.1-4.4 5.4-6.3 11.8-5.4 19.3 4.4 16.7 22.7 22.2 37.3 26.6-2.1 9.4.4 22.2-2 31.9-4.1 1.4-9.4 3.1-11.6 8.3-2.7 6.2-1 12.5.9 15.7 1.9 3.2 7.4 6.9 12.9 7.5.4 3.6-.9 8.8 2.1 10.7 3 1.9 7.1-.4 7.5-2.1.4-1.7-1-4.2-.8-6 .8-7 8.9-15.3 10.4-17.5 1.5-2.3 5.3-1.9 3.5-4.3-1.8-2.4-8.8 3.1-12.1 7.5-.6-2.9-.7-7.2-.7-11.6 8.2-1.6 21.6-6 25.7-9.7 6-5.4 8.4-12.7 8.1-20.5-.1-18.6-21.8-23.7-33.2-31.1 0-1.6.2-14.1.3-24.3 12.9-3.8 33.3-13.1 40.4-21 7.4-8.2 10.8-18.1 10.7-24.3.6-6.3-2.3-12.8-9-19.5zM150.3 140l2.1 2.1 1.1 1.1-.7.7s-3-2.7-3.2-3.2c-.2-.5.7-.7.7-.7zm-4.8 6.3l5 .5s1.5.2 1.5 1c0 .9-3.1 2.1-6 .8s-.5-2.3-.5-2.3zm-4.5 3c.5-1 10.4.7 10.7 2.1.3 1.5-2.3 3.1-2.1 4.3.2 1.2 2.7 2.2 2.7 2.2-4.1.5-10.2 2.6-10.2 2.6l-.7-6.5c.1.1-.9-3.7-.4-4.7zm-21.4 33s-5.3 3.9-7.8.4c0 0 4.2-2.8 7.4-2.6 3.2.2.4 2.2.4 2.2zm21.5 141s.3 3.1 3 2.8c2.8-.3.5-10.5.1-16.2 0-1.2-.2-2.6 1.1-3.2l-1.1-1.1c1.6-10.1 1.6-22.1 0-32.1 1.2 0 2.6-.2 3.2 1.1-1.6 2.6-1.6 7.1 0 9.6 2.8 1.8-2.4 6.3 3.2 5.4l-.8-.7 1.1-1.1.8.7c-1.3.6-1.1 2-1.1 3.2-1 .3-1.5-.5-2.1-1.1-3.5 10.5-2.2 24.8-.9 35.9 0 0-2.3 1.6-4.4 1.6-2.1-.1-3.2-1.4-4-3-.8-1.6 1.8-6.7 1.8-6.7.1 1.8-.1 3.3.1 4.9zm-10-6.7c-.9-3.6 4.6-6.8 8.3-9.7-1.3 4.2-3.8 7.7-8.3 9.7zm25.5 7.6c-5.6 8.6-13.1 10.9-18.8 8.3-2.4-1.9-5.9-3.2-5.8-8 .1-6.9 9.1-12.3 9.1-12.3s-5.3 6.5-5.7 10.5c-.5 4.6 1.8 7 5.6 8.3 3.7 1.1 12-3.7 15.6-6.8zM124 263c-10.6-5.2-15.6-13.2-15.7-20.7-.1-7.5 3.1-12.3 9.5-17.4 6.2-5 15.2-8.6 21.8-10.7v5.7c-8.5 2.4-21.2 8.5-23.7 14.9-2.6 6.4-1.2 9.8.8 13.7 3.3 6.5 10 10.3 17.1 13 3 1.1 17.3 5.6 21.8 7.3 4.5 1.7 18.1 7.5 18.8 15.8.3 4-2.6 9.3-7.1 13.2-4.5 4-10.6 6.7-15 8.5.1-1.2.1-2.3.2-3.4h.1c12.6-4.8 18.7-13.9 17.3-18.8-1.4-4.9-8.4-8.7-15.4-11.5-6.9-2.6-20.6-4.8-30.5-9.6zm29.9 20.2l-1.1-7.5c5.1 3.5 13.8 5.3 13.6 11.9-.1 3.3-9.8 9.7-13.6 12.1.1-1.2.2-2 .2-2-.5-5.2 5.9-10.1.9-14.5zm3.2-24.7c11.3 4 19.8 10.8 23.1 17.1 3.2 6.3 2.9 13.3.5 18.3-1.6 3.3-6.8 8.1-12.1 10.9-6 3.3-12.6 5-16.4 5.8 0-.7 0-1.3.1-2 3.4-1.1 9.9-3.5 15.1-6.3 4.2-2.2 12.1-9.7 10.7-19.7-.8-5.7-7.7-10.9-17.2-15.3-6.4-2.9-14.9-5.5-20.3-7.6-12.8-4.9-21.9-11.1-22.1-17.4-.5-12.9 12.5-14.9 21.2-18.7l-.3 5.4s-5.4.9-8.4 2.8c-3 2-4.9 4.2-4.2 9.8.2 1.4 3.9 6.1 9 8.4 4.7 2.3 15.2 6.4 21.3 8.5zm-18.2-24.6l-.8 13.3c-1.6-.7-3.1-1.4-4.2-2.3-2.7-2.1-3.2-6-2.4-7.4 2.2-3.7 7.4-3.6 7.4-3.6zm7.7-37.7c-.8 1.8.8 53.8.8 53.8s-2.1-.4-4.7-1.2c-.1-2.4-.4-6.3-.7-8.5-.5-3.2 2.6-30.6-.9-44.3 5.4-4.6-1.3-15 4.1-18.2 1.4-.8 3.1-1.5 6.3-.8-6.1 2.5-1.3 8.2-4.2 12.9.6.5 1.2 1.4 2.1 1.1l4.1-2.6-.3 3.3c-1.4-.3-5.8 2.7-6.6 4.5zm44.2 7.4c-7.2 7.7-23.2 15.3-37.7 20.4.1-5.5.1-9.7.1-9.7.1-1.4.3-3 .6-4.6 3.4-.7 10.3-3.7 14-5.8 6.3-3.6 13.8-8.1 17.3-14 3.6-6 2.1-11.6-1.7-16-3.9-4.4-16.3-5-20-5-10.1-.1-15.9 1.7-23.1 4.2-7.2 2.5-6.5 8.6-8.3 9.4-1.8.8-6.8-1.6-9.3-.2 0 0 1.5-1.8.3-3.6s-4-.9-6.5-.1c-5.4 1.7-7.2 2.3-7.6-4.6 4-1.4 8.6-1.3 11.8-4.3 0 0 7.3-5.3 9.6-5.4 2.3-.1 3 1.1 3.5 1.7 5.9-2.3 14.8-5.6 25.5-6.6 7.8-.8 16.2-.4 22.6 1.7 6.4 2.1 18 11.3 18.3 20.5.2 9.2-2 14.1-9.4 22zM156 172.9c9.2.5 22.3.3 25.1 5.6 2.8 5.3-.1 9.8-2.5 12.6-6.2 7.7-21 14-24.3 15.3 1.8-9.9 4.5-23.1 1.7-33.5zm-10.1 192.6l-.8-.5C55.5 312.9 5.4 228.9.4 122.2c-.2-6-.4-12.2-.4-18.3V0h292.3v104.2c0 6-.2 12.1-.4 18-5.1 106.4-55.3 190.4-145.2 242.9l-.8.4zM3.2 3.2v100.7c0 6.1.1 12.2.4 18.2 4.9 105.3 54.1 188.2 142.3 239.8 88.4-52 137.8-134.9 142.8-239.8.3-5.9.4-11.9.4-17.8V3.2H3.2zM1.6 120.5h289.2v3.2H1.6z"/></svg><svg viewBox="0 0 384.2 29.1" width="384.2" height="29.1" y="2879"><g fill="#fff"><path d="M22.3 6.1l-6.8 11.5v7.7c.8 1.9 2.8 2.1 4.7 2.2v1.1H6.8v-1.1c1.9-.1 4.2-.4 4.8-1.6v-8l-7-11.8C3.5 4.2 2.3 3.5 0 3.4V2.3h11.6v1.1c-2.2.1-2.9.5-3.5 1l6.5 11.2 6.3-11.1c-.7-.5-1.5-1-3.7-1.1V2.3h9.9v1.1c-2.2 0-3.6.8-4.8 2.7M35.9 29c-2.2 0-3.3-1.5-3.4-2.6-1.4 1.5-3.2 2.6-5 2.6-2.2 0-4.1-1.4-4.1-3.7 0-1.2.3-2.4.9-3.3l8.2-3v-3.1c0-1.9-.9-3.6-2.7-3.6-1.1 0-2.2 1.4-2.3 3.5l-3.7.6V16c1.2-3.7 5.3-5.2 7.3-5.2 3.8 0 5.1 2 5.1 5.1l-.1 8.7c0 1.7.9 2.1 1.7 2.1.7 0 1.3-.4 2.1-1.2v1.2c-.9 1-2.5 2.3-4 2.3m-8.3-6.8c-.2.7-.3 1.2-.3 2.2 0 1.2.7 2.5 2.1 2.5 1.2 0 1.9-.4 3.1-1.3V20c-1.1.5-3.7 1.7-4.9 2.2m12.7 6.4v-1c1.9-.1 2.4-.5 2.7-1.2V5c0-1.4-.2-2-3.1-2.2v-.9L47.5 0l.2.7-1.2 1.5v24.2c.4.8 1.2 1.1 2.9 1.2v1h-9.1zm19.1.4c-4.3 0-7.7-3.4-7.7-8.2 0-5.9 3.6-9.9 8.7-9.9 4.1 0 6.4 2.3 6.4 6v.7l-11.2-.1c-.1.5-.1 1.2-.1 2.1 0 4.2 2.7 7 6.2 7 2.1 0 3.2-.7 4.8-2.2l.6 1c-2.4 2.1-4.3 3.6-7.7 3.6m.4-16.9c-2.1 0-3.5 1.7-4 4.3l7.3-.1c-.1-2.2-1.4-4.2-3.3-4.2"/><path d="M83.4 29.1c-2.1 0-3.8-.6-4.9-1l-.5-4.4h.7c.2 1.1 1 2.5 2 3.2.6.5 1.9 1.2 3 1.2 2.2 0 3.3-1.4 3.3-2.8 0-1.9-1.2-2.4-3.2-3.2-3.8-1.6-5.2-2.6-5.2-5.2 0-2.9 2.9-4.8 6.7-4.8 1.8 0 3.2.5 4.1.9v4.3h-.7c-.1-1.1-.5-2.5-1.5-3.1-.4-.2-1.4-.9-2.6-.9-2.1 0-3.2 1.3-3.2 2.6 0 1.7.9 2.4 3.5 3.4 3.5 1.4 5 2.5 5 5 0 2.9-2.9 4.8-6.5 4.8zm25.1-1c-2 .6-2.6.9-5.7.9-5.3 0-9.2-3.8-9.2-8.7 0-5 4.1-8.4 9.2-8.4 2.6 0 4 .5 5.9.9v4.5h-.7c-.1-1.1-.6-2.4-1.5-3-.5-.3-1.7-1.3-3.9-1.3-3.7 0-5.8 3.1-5.8 6.7 0 4.8 2.7 8.2 7 8.2 1.4 0 2.4-.6 2.8-.9 1-.8 1.7-2 2-3.2l.8.1-.9 4.2zm15.4.6V28c1.2 0 2.2-.4 2.5-.9V21h-8.8v6.1c.2.5 1.3.8 2.5.9v.7h-7.8V28c1.1 0 2.3-.4 2.5-.9V13.9c-.2-.5-1.3-.8-2.5-.9v-.7h7.8v.7c-1.1.1-2.3.4-2.5.9v5.7h8.8v-5.7c-.3-.5-1.3-.8-2.5-.9v-.7h7.9v.7c-1.2.1-2.2.4-2.5.9v13.2c.3.5 1.3.8 2.5.9v.7h-7.9zm18.9.4c-5.2 0-8.2-3.6-8.2-8.5 0-5 4.2-8.6 9.3-8.6 5.3 0 8.2 3.6 8.2 8.4 0 5.1-4.1 8.7-9.3 8.7zm-.3-16c-2.4 0-4.8 2.7-4.8 6.7 0 4.7 2.3 8.1 6.3 8.1 2.6 0 5-2.6 5-6.7 0-4.9-2.5-8.1-6.5-8.1zm21.4 16c-5.2 0-8.2-3.6-8.2-8.5 0-5 4.2-8.6 9.3-8.6 5.3 0 8.2 3.6 8.2 8.4 0 5.1-4.1 8.7-9.3 8.7zm-.3-16c-2.4 0-4.8 2.7-4.8 6.7 0 4.7 2.3 8.1 6.3 8.1 2.6 0 5-2.6 5-6.7 0-4.9-2.5-8.1-6.5-8.1zm11.9 15.6V28c1-.1 2.6-.3 3-1.2V13.9c-.2-.5-1.3-.8-2.5-.9v-.7h8.1v.7c-1.1.1-2.5.4-2.7.9v13.5l4.7-.1c1.8 0 2.9-1.7 2.9-3.9h.7v5.3h-14.2zm33 .4c-5.2 0-8.2-3.6-8.2-8.5 0-5 4.2-8.6 9.3-8.6 5.3 0 8.2 3.6 8.2 8.4.1 5.1-4.1 8.7-9.3 8.7zm-.3-16c-2.4 0-4.8 2.7-4.8 6.7 0 4.7 2.3 8.1 6.3 8.1 2.6 0 5-2.6 5-6.7 0-4.9-2.5-8.1-6.5-8.1zm24.4 3.4c-.1-2.3-1-2.9-3-2.9H226V20l3.5-.1c1.7-.1 2.4-.1 2.7-2h.7v5.5h-.7c-.2-2.1-.9-2.1-2.6-2.1h-3.5v5.5c.3.8 1.8 1.2 3 1.3v.7h-8.6V28c1.1-.1 2.4-.3 2.7-1.1V14c-.2-.6-1.4-.9-2.6-.9v-.7h10.7c.6 0 1.1 0 1.5-.2h.6v4.3h-.8zm26.2 12.2V28c1.2-.1 2.5-.4 2.7-.9l-.5-9.5v-2.7l-.8 2.1-5.2 11.7h-1l-4.5-12.3-.7-2-.1 1.8-.7 10.6c.2.5 1.4 1 2.6 1.1v.7h-6.7V28c1.2-.1 2.3-.6 2.6-1.1l.7-9.2c.1-.9.2-2.8.2-2.9V14c-.3-.4-1.1-.8-2.3-.9v-.7h5.8l.8 2.5 3.7 10.2 4.2-9.9 1.1-2.7h5.2v.5c-1.2.1-2.1.4-2.3.8v.6c0 .3.1 2.3.2 3.1l.5 9.5c.3.5 1.4.8 2.5.9v.7h-8zm16.5 0l-5.8.1v-.7c1.2-.1 2.9-.4 3.3-1.2v-13c-.2-.5-1.3-.8-2.5-.9v-.7H281c.7 0 1.2-.1 1.5-.2h.6v4.3h-.7c-.1-2.3-1-2.9-3-2.9h-3.7v6.1h3.5c1.8 0 2.5 0 2.7-1.9h.6V23h-.7c-.2-2.1-.8-2.1-2.7-2.1h-3.5v5.6c.1.3.2.7.7.9l4.1-.1c1.7 0 2.9-.8 2.9-3h.6v4.3h-8.6zm20.8 0h-8.6V28c1.1 0 2.4-.4 2.6-.9V13.9c-.2-.5-1.5-.8-2.7-.9v-.7c3-.1 5.9-.3 8.2-.3 5.9 0 9.4 3 9.4 8s-3.9 8.8-8.9 8.7zM294.5 13H293v13.9c.3.4 1.7.8 2.7.8 4.1 0 6.1-2.8 6.1-6.8 0-5.3-2.8-7.9-7.3-7.9zm13.1 15.7V28c1.2-.1 2.4-.4 2.6-.9V13.9c-.2-.5-1.4-.8-2.6-.9v-.7h8.2v.7c-1.2.1-2.4.4-2.6.9V27c.2.5 1.4.8 2.6.9v.7h-8.2zm25.6-.6c-2 .6-2.6.9-5.7.9-5.3 0-9.2-3.8-9.2-8.7 0-5 4.1-8.4 9.2-8.4 2.6 0 4 .5 5.9.9v4.5h-.7c-.1-1.1-.6-2.4-1.5-3-.5-.3-1.7-1.3-3.9-1.3-3.7 0-5.8 3.1-5.8 6.7 0 4.8 2.7 8.2 7 8.2 1.4 0 2.4-.6 2.8-.9 1-.8 1.7-2 2-3.2l.8.1-.9 4.2zm3.8.6V28c1.2-.1 2.4-.4 2.6-.9V13.9c-.2-.5-1.4-.8-2.6-.9v-.7h8.2v.7c-1.2.1-2.4.4-2.6.9V27c.2.5 1.4.8 2.6.9v.7H337zm27.8-14.5V24c0 1.4.1 3.7.2 4.9h-1.6l-10-12.3-1.1-1.7.1 1.5v5.9c0 1.4.1 3.4.2 4.5.2.5 1.7 1 2.9 1.1v.7h-7.1V28c1.2-.1 2.3-.6 2.5-1.1v-9.2c0-1.3 0-2.6-.1-3.5-.3-.5-1.3-1-2.5-1.1v-.7h5.2l1.5 1.9 8.4 10.3v-5.9c0-1.4-.1-3.6-.1-4.4-.2-.5-1.7-1.1-2.9-1.1v-.7h7.1v.5c-1.3.1-2.4.6-2.7 1.2zm10.7 14.5l-5.8.1v-.7c1.2-.1 2.9-.4 3.3-1.2v-13c-.2-.5-1.3-.8-2.5-.9v-.7h10.7c.7 0 1.2-.1 1.5-.2h.6v4.3h-.7c-.1-2.3-1-2.9-3-2.9h-3.7v6.1h3.5c1.8 0 2.5 0 2.7-1.9h.6V23h-.7c-.2-2.1-.8-2.1-2.7-2.1h-3.5v5.6c.1.3.2.7.7.9l4.1-.1c1.7 0 2.9-.8 2.9-3h.6v4.3h-8.6z"/></g></svg></svg>